<?xml version="1.0" encoding="utf-8"?>
<!-- Generator: Adobe Illustrator 20.0.0, SVG Export Plug-In . SVG Version: 6.00 Build 0)  -->
<svg version="1.1" id="Layer_1" xmlns="http://www.w3.org/2000/svg" xmlns:xlink="http://www.w3.org/1999/xlink" x="0px" y="0px"
	 viewBox="0 0 305.7 308" enable-background="new 0 0 305.7 308" xml:space="preserve">
<g>
	<defs>
		<path id="SVGID_1_" d="M254.5,307H50.2c-28.1,0-50.9-22.8-50.9-50.9V51.9C-0.6,23.8,22.1,1,50.2,1h204.2
			c28.1,0,50.9,22.8,50.9,50.9v204.2C305.4,284.3,282.6,307,254.5,307z"/>
	</defs>
	<clipPath id="SVGID_2_">
		<use xlink:href="#SVGID_1_"  overflow="visible"/>
	</clipPath>
	<g clip-path="url(#SVGID_2_)">
		<g>
			<polygon fill="#483392" points="197.9,38.1 145.1,-15.1 89.3,37.9 36,-15 -8.2,28.9 -26.9,10.1 36,-52.4 89.7,0.9 145.6,-52.3 
				198.2,0.7 252.1,-51.8 322.2,9.4 304.7,29.4 253.1,-15.6 			"/>
		</g>
		<g>
			<polygon fill="#FFFFFF" points="198,75.3 144.6,21.9 88.7,74.9 36.1,22.1 -8.2,66.1 -26.9,47.3 36.2,-15.5 89.2,37.8 
				145.1,-15.1 198.2,37.9 253.2,-15.7 323.5,45.7 306.1,65.7 254.2,20.4 			"/>
		</g>
		<g>
			<polygon fill="#483392" points="196.9,112.5 144,59.2 88.2,112.3 34.9,59.4 -9.3,103.3 -28,84.5 36.1,22.1 88.7,74.9 144.5,22.1 
				198,75.3 254.2,20.4 328.6,83.8 311.1,103.8 252.1,58.7 			"/>
		</g>
		<g>
			<polygon fill="#FFFFFF" points="196.9,149.6 143.5,96.3 87.6,149.3 35.1,96.4 -9.3,140.5 -28,121.7 35.2,58.9 88.2,112.2 
				144,59.2 197.1,112.3 252.2,58.7 333.7,121 315.5,147.6 253.1,94.8 			"/>
		</g>
		<g>
			<polygon fill="#483392" points="197.9,187.9 145.1,134.7 89.3,187.7 36,134.8 -8.2,178.8 -27.6,158.8 35,96.5 87.6,149.3 
				143.5,96.4 196.9,149.6 253.1,94.8 324.1,154.8 304.7,179.2 253.1,134.2 			"/>
		</g>
		<g>
			<polygon fill="#FFFFFF" points="198,225.1 144.6,171.7 88.7,224.7 36.1,171.9 -8.2,215.9 -26.9,197.1 36.2,134.3 89.2,187.6 
				145.1,134.7 198.2,187.8 253.2,134.1 323.5,195.6 306.1,215.6 254.2,170.2 			"/>
		</g>
		<g>
			<polygon fill="#483392" points="196.9,262.3 144,209.1 88.2,262.1 34.9,209.2 -9.3,253.1 -28,234.3 36.1,171.9 88.7,224.7 
				144.5,171.9 198,225.1 254.2,170.2 328.6,234.2 311.1,254.2 252.1,208.5 			"/>
		</g>
		<g>
			<polygon fill="#FFFFFF" points="196.9,299.4 143.5,246.1 87.6,299.1 35.1,246.2 -9.3,290.3 -28,271.5 35.2,208.7 88.2,262 
				144,209.1 197.1,262.1 252.2,208.5 319.3,260.4 317.6,294.1 253.1,244.6 			"/>
		</g>
		<g>
			<polygon fill="#483392" points="196.9,336.7 144,283.4 88.2,336.5 34.9,283.6 -9.3,327.5 -28,308.7 35.1,246.2 88.2,298.6 
				143.5,246 197.5,298.9 253.4,244.4 331.3,304.8 311.1,328 252.1,282.9 			"/>
		</g>
		<g>
			<polygon fill="#FFFFFF" points="196.9,373.8 143.5,320.5 87.6,373.5 35.1,320.6 -9.3,364.7 -28,345.9 35.2,283.1 88.2,336.4 
				144,283.4 197.1,336.5 252.2,282.8 319.3,334.7 301.8,354.7 253.1,319 			"/>
		</g>
	</g>
</g>
<g>
	<g>
		
			<path fill="#FF671B" stroke="#FFFFFF" stroke-width="6.6154" stroke-linecap="round" stroke-linejoin="round" stroke-miterlimit="10" d="
			M77.7,160.8c-0.2,0-0.3,0.1-0.5,0.1c-0.3,0.1-0.6,0.3-0.8-0.1c-0.2-0.4,0.1-0.6,0.2-0.8c0-0.1,0.1-0.2,0.1-0.3
			c0-0.7,0.5-1,1.1-1.2c0.5-0.2,1-0.3,1.5-0.4c1.4-0.2,2.4-0.9,3.1-2.1c0.3-0.5,1.3-0.5,1.5,0c0.1,0.1,0.1,0.2,0.1,0.3
			c-0.1,0.5,0.2,0.6,0.6,0.8c0.4,0.1,0.7,0,0.9-0.4c0.1-0.2,0.4-0.3,0.6-0.4c0.3-0.1,0.7-0.2,0.7-0.7c0-0.1,0.2-0.3,0.3-0.3
			c0.8-0.2,1.6-0.5,2.3-0.7c0.6-0.2,1,0,1.3,0.5c0.1,0.2,0.5,0.2,0.7,0.2c0.3-0.1,0.6-0.2,0.6-0.7c-0.1-0.4-0.4-0.6-0.9-0.4
			c-0.6,0.2-0.6,0.2-0.8-0.4c0-0.1,0-0.2-0.1-0.3c-0.5-1-0.1-1.7,0.6-2.4c0.1-0.1,0.3-0.2,0.5-0.2c0.8,0.1,1.5,0.2,2.3,0.4
			c0.2,0,0.4,0.2,0.5,0.4c0.1,0.1,0.2,0.3,0.4,0.6c0.2-0.1,0.4-0.2,0.5-0.4c0.4-0.5,0.9-0.3,1.4-0.1c0.2,0.1,0.4,0.4,0.4,0.7
			c0.1,0.3,0,0.7,0,1.2c0.3-0.4,0.5-0.7,0.7-1c0.3-0.5,0.6-0.5,1.1-0.3c0.5,0.3,1.1,0.4,1.7,0.6c1,0.2,1.8,0.1,2.3-0.9
			c0.2-0.5,0.7-0.4,1.1-0.3c0.7,0.1,0.9-0.2,0.8-0.9c-0.1-0.5,0.1-0.9,0.4-1c0.5-0.1,1.1,0.3,1.2,0.7s0.2,0.8,0.3,1.2
			c0.1,0.2,0.3,0.4,0.4,0.4c0.3,0.1,0.5,0,0.8-0.3c0.9-1.3,1.7-2.7,1.9-4.5c1,0.1,2,0.1,3.1,0.2c0.2,0,0.4,0.4,0.6,0.6
			c0.2,0.2,0.3,0.6,0.6,0.4c0.3-0.1,0.8-0.2,0.7-0.8c0-0.2,0-0.4,0-0.5c0-0.9,0.2-1.1,1.1-1.3c0.4-0.1,0.6-0.2,0.5-0.7
			c-0.1-0.3-0.2-0.7-0.2-1.1c-0.1-0.3,0.2-0.7,0.5-0.7s0.7,0.1,1,0.1c0.5,0,0.8,0.2,0.7,0.7c0,0.2-0.1,0.4-0.2,0.6
			c-0.3,0.3-0.6,0.5-0.9,0.8c0.7,0.3,0.8,0.2,1.1-0.5c0.5,0.1,1,0.1,1.5,0.2c0.4,0.1,0.8-0.1,1.1-0.3c0.4-0.3,0.8-0.7,1.2-1
			c0.5-0.3,0.9-0.3,1.3,0.1c0.8,0.8,1.8,0.6,2.4-0.3c-0.1-0.1-0.2-0.2-0.3-0.3c-0.1-0.1-0.2-0.3-0.3-0.4c-0.1-0.8,0.7-1.1,1-1.6
			c0.1-0.1,0.7,0.1,1,0.1c0.1,0,0.1,0.2,0.2,0.3c0.1,0.2,0.1,0.3,0.2,0.5c0.5,1.2,1,1.3,2.1,0.7c0.4-0.2,0.8-0.4,1.2-0.6
			c0.6-0.2,1.3-0.2,1.7,0.4c0.2,0.3,0.5,0.5,0.7,0.8c1.4-0.8,2.3-1.9,2.2-3.6c0-0.1,0-0.2,0-0.4c0.1-1,0.4-1.4,1.4-1.6
			c0.7-0.1,1.4-0.1,2.1-0.1c0.5,0,0.8,0.3,1,0.7c0.4,0.7,0.9,0.8,1.5,0.2c0.6-0.5,1.3-1.1,2.2-1c0.4,0,0.7,0.2,1,0.4
			s0.6,0.3,0.9,0.2c0.6-0.3,1.1,0.1,1.2,0.7c0.1,0.5,0.1,1,0,1.5c-0.1,0.4,0.1,0.6,0.3,0.8c0.2,0.1,0.5,0,0.7,0
			c0.1,0,0.2-0.1,0.3-0.1c0.8,0.1,1-0.4,1-1.1c0-0.1,0.2-0.3,0.3-0.4c0.4-0.2,0.4-0.4,0.4-0.8c0-0.6,0.1-1.1,0-1.7
			c-0.1-0.6,0.3-0.8,0.8-1c0.4-0.2,0.9-0.2,1.1,0.3c0.3,0.6,0.6,1.2,0.9,1.8c0.1,0.3,0.1,0.6,0.7,0.7c0.5,0,0.7-0.2,0.8-0.6
			c0.1-0.3,0.9-0.7,1.3-0.7c0.4,0.1,0.6,0.4,0.7,0.8c0.2,1,0.2,1-0.8,1.6c-0.7,0.4-0.6,0.3-0.1,0.9c0.4,0.4,0.7,0.7,1.3,0.7
			c0.1-0.3,0.2-0.6,0.3-1c0.2-0.6,1.1-1.1,1.7-0.9c0.3,0.1,0.5,0.9,0.3,1.3c-0.3,0.4-0.7,0.7-1,1c-0.1,0.1-0.2,0.3-0.2,0.5
			c0.3,1.2,0.6,2.4,0.9,3.6c0,0.1,0,0.1,0.1,0.2c0.3,0,0.7,0,1-0.1c0.1,0,0.3-0.3,0.3-0.4c0-0.4,0.1-0.9-0.4-1.2
			c-0.4-0.3,0-0.6,0.1-0.9c0-0.1,0.3-0.3,0.4-0.3c1.2,0,2.2,0.4,2.9,1.4c0.1,0.2,0.3,0.4,0.5,0.4c0.4,0,0.8-0.1,1.2-0.3
			c0.1,0,0.1-0.2,0.1-0.4c0-0.4,0-0.8-0.1-1.2c0.6,0,1.1,0,1.7,0c0.1,0,0.4,0.3,0.4,0.5c-0.1,0.5-0.2,1-0.8,1.2
			c-0.1,0-0.3,0.3-0.3,0.4c0,0.5,0.1,1.1,0.1,1.6c0.1,0.8-0.1,1.5-0.8,1.9c0.5,0.8,1.3,0.9,2,0.4c0.3-0.2,0.5-0.3,0.8-0.5
			c-0.1-0.6-0.3-1.1-0.4-1.7c0-0.1,0-0.3,0-0.4c0-0.7,0.2-1,0.7-1.1c0.7-0.1,1.3,0.2,1.5,0.8c0.1,0.4,0.2,0.9,0.4,1.3
			c0.2,0.4,0.5,0.7,1,0.8c0.4,0,0.6,0.3,0.5,0.6c-0.1,0.7,0.2,1.1,0.8,1.4c0.5,0.2,0.8,0.7,1.2,1s0.4,0.8,0.3,1.2
			c-0.2,0.5-0.7,0.7-1.3,0.7c-0.5-0.1-0.9-0.2-1.4-0.2c-0.6,0-0.9,0.2-1.1,0.9c-0.1,0.3-0.2,0.6-0.3,1c0.6,0,1.1-0.1,1.5,0
			s0.6,0.6,0.9,0.9c-0.1,0.1-0.1,0.2-0.2,0.2c-0.8,0.8-0.8,0.8-0.2,1.7c0.3,0.4,0.2,1.1-0.3,1.5c-0.4,0.3-0.5,0.6-0.1,1
			c0.1,0.1,0.2,0.2,0.1,0.3c-0.2,0.5-0.3,1-0.7,1.5c-0.1,0.2-0.7,0.1-1,0.1c-0.1,0-0.3-0.3-0.3-0.4c0-0.7,0.1-1.3,0.1-2
			c0-0.6-0.4-0.8-0.8-0.6c-0.1,0.1-0.3,0.2-0.3,0.4c-0.1,0.7-0.1,1.4-0.1,2.1c-0.1,0.8,0.1,1.4,0.8,1.9c0.4,0.3,0.5,0.8,0.3,1.2
			c-0.3,0.4-0.7,0.7-1.1,1c-0.1,0.1-0.3,0.1-0.4,0.2c-0.5,0.1-0.6,0.4-0.4,0.9c0.5-0.2,0.9-0.4,1.3-0.5c0.6-0.2,1,0,1.3,0.5
			s0.4,1,0.6,1.5c0,0.1,0,0.3,0,0.3c-0.7,0.7-1.8,1-2.4-0.1c-0.1-0.1-0.3-0.3-0.4-0.2c-0.2,0.1-0.3,0.3-0.4,0.4c0,0,0,0.1,0,0.2
			c0.1,0.6,0.1,1.1-0.7,1.3c0.2,0.3,0.3,0.5,0.5,0.8c0.3-0.2,0.6-0.4,0.9-0.5c0.5-0.2,1-0.5,1.6-0.6s0.9,0.2,1,0.8
			c0,0.4,0.1,0.8,0,1.1s-0.3,0.7-0.5,0.7c-0.3,0.1-0.8,0-1-0.1c-0.5-0.3-0.8-0.3-1.3,0.1c0.2,0.1,0.4,0.2,0.6,0.3
			c0.4,0.3,0.9,0.6,1.2,0.9c0.4,0.5,0.4,1-0.1,1.4c-0.6,0.5-0.5,1.1-0.4,1.8c0,0.1,0.2,0.3,0.3,0.3c0.4,0.2,0.8,0.4,1.1,0.7
			c0.3,0.2,0.4,0.6,0.6,0.9c0.2,0.2,0.3,0.5,0.5,0.7c0.8,0.7,0.9,0.8,0.4,1.7c-0.3,0.5-0.2,0.7,0.3,0.9c0.8,0.3,0.6,1,0.6,1.5
			c0,0.2-0.4,0.5-0.6,0.7c-0.3,0.2-1.2-0.1-1.4-0.4c-0.4-0.6-0.8-0.7-1.4-0.5c-0.6,0.3-1.1,0.6-1.7,0.9c-0.1,0.1-0.1,0.3-0.1,0.4
			c0.1,0.3,0.2,0.6,0.2,0.9c0.3,1.3,0.9,2.3,2.4,2.4c-0.5,0.7-0.9,1.5-1.7,1.9c-0.4,0.2-0.2,0.6-0.1,0.9c0.1,0.3,0.3,0.6,0.4,0.9
			c0.1,0.2,0.2,0.3,0.3,0.5c0.1-0.1,0.2-0.2,0.3-0.4c0.1-0.1,0.3-0.3,0.5-0.4c0.5-0.2,0.6-0.5,0.6-1c-0.1-0.3,0-0.7,0-1
			c0.1-0.6,0.5-0.9,1-0.9c1.1,0,1.9,0.5,2.3,1.5c0.2,0.6,0.5,1.2,0.6,1.8c0.1,0.3-0.1,0.6-0.2,0.9c-0.2,0.4-0.2,0.7,0.2,0.9
			c0.4,0.3,0.9,0.6,0.9,1.2c0,0.4-0.1,0.7-0.5,0.9c-0.6,0.3-0.7,0.7-0.6,1.3c0,0.2,0,0.5,0.1,0.7c0.1,0.8-0.1,1.1-0.8,1.4
			c-0.3,0.1-0.6,0.2-0.8-0.3s-0.6-0.4-1.1-0.4c0.1,0.3,0.1,0.5,0.2,0.7c0.2,0.6,0,1.2-0.5,1.7c-0.1,0.1-0.2,0.3-0.1,0.4
			c0.5,1.1,0.2,1.8-0.8,2.5c-0.3,0.2-0.4,0.7-0.5,1.1c-0.1,0.5-0.1,1.1-0.1,1.8c1-0.4,2-0.5,2.3-1.6c0.3-1,0.7-2.1-0.3-3.1
			c0.3-0.3,0.6-0.7,1-1.1c0.3-0.2,1.2,0.2,1.2,0.6c0.1,0.7,0.1,1.4,0.1,2.2c0.5,0,1.2-0.1,1.9-0.2c0.4,0,0.6,0,0.7,0.4
			c0.2,0.5,0.4,1,0.5,1.5c0.2,0.9-0.4,1.7-1.4,1.8c-0.4,0-0.7-0.1-0.9-0.4c-0.1-0.2-0.2-0.4-0.3-0.6c-0.4-0.6-1.3-1-1.9-0.6
			c-0.2,0.1-0.3,0.5-0.3,0.8s0.1,0.5,0.2,0.8c0.2,0.7,0.2,1.3-0.1,1.9c-0.2,0.4-0.3,0.8-0.5,1.2c-0.2,0.5,0,0.9,0.2,1.2
			s0.8,0.4,1,0.1c0.3-0.4,0.8-0.5,1.3-0.5c0.9,0,1.1-0.1,1.4-1c0.3-0.8,0.5-1.7,0.7-2.6c0.1-0.3,0.2-0.5,0.5-0.4c0.1,0,0.2,0,0.3,0
			c0.9-0.2,1.4,0.2,1.5,1c0,0.4-0.2,0.8-0.2,1.3c0,0.4-0.1,0.7,0,1.1c0.1,0.8,0.8,1.2,1.5,0.8c0.3-0.2,0.6-0.4,0.9-0.5
			c0.4-0.1,0.8-0.2,1.2-0.1c0.5,0.1,0.7,0.5,0.6,1c-0.3,0.8-0.6,1.7-0.9,2.5c-0.1,0.4-0.2,0.8-0.1,1.2c0.1,0.4,0,0.7-0.3,1
			c-0.1,0.2-0.3,0.3-0.5,0.5c-0.7,0.7-0.6,1.1-0.1,1.9c0.3,0.5,0.4,1.1,0.6,1.7c0.1,0.2,0.1,0.4,0.2,0.7c0.4-0.5,0.8-0.9,1.2-1.3
			c0.3-0.3,0.7-0.6,1.1-0.7c0.8-0.3,1.4,0.3,1.1,1c-0.3,1-0.7,2-1.1,3c-0.3,0.8-0.3,0.8,0.4,1.2c0.5,0.2,0.9,0.5,0.7,1.1
			c-0.1,0.2-0.2,0.5-0.4,0.6c-0.5,0.5-0.8,1-0.7,1.7c0,0.3-0.1,0.6-0.2,0.8c-0.2,0.5-0.3,0.9,0.1,1.3c0.3,0.3,0.5,0.5,0.2,0.9
			c-0.2,0.4-0.8,0.6-1.4,0.3c-0.2-0.1-0.4-0.2-0.6-0.3c-0.2-0.2-0.5-0.3-0.7,0c-0.2,0.2-0.4,0.2-0.2,0.6c0.2,0.3,0.2,0.7,0.7,0.6
			c0.5-0.1,0.9,0,1.1,0.5c0.2,0.6,0.1,1.3-0.4,1.6c-0.4,0.3-0.6,0.7-0.5,1.2c0,0.7-0.2,1.1-0.9,1.2c-0.4,0.1-0.8,0.3-1.2,0.5
			c-1.2,0.6-2.3,0.6-3.5,0c-0.1,0-0.2-0.1-0.3-0.1c0,0-0.1,0-0.2,0c0,0.2,0,0.4,0,0.6c0.1,0,0.2,0,0.3,0c0.4,0.1,0.6,0.4,0.6,0.8
			c-0.1,0.4-0.1,0.7-0.2,1.1c-0.1,0.2-0.2,0.5-0.4,0.7c-0.7,0.6-0.7,1.1-0.1,1.8c0.1,0.1,0.2,0.2,0.3,0.3c-0.2,0.3-0.3,0.6-0.5,0.8
			c-0.4,0.4-0.9,0.9-1.4,1.1c-0.6,0.3-1.1,0-1.4-0.5c-0.5-0.9-0.6-0.9-1.6-0.6c-0.2,0.9-0.1,1.2,0.7,1.4c1.1,0.3,1.3,0.9,1.1,1.9
			c0,0.3-0.1,0.6-0.4,0.7c-0.5,0.2-1,0.4-1.5,0.5c-0.6,0.1-1-0.2-1.2-0.8s-0.7-0.8-1.3-0.5c-0.3,0.2-0.5,0.5-0.4,0.8
			c0.1,0.4,0.2,0.7,0.2,1.1c0,0.6-0.3,1-0.9,1.1c-0.8,0.1-1.5,0.2-2-0.6c-0.3-0.5-0.9-0.4-1.3,0c-0.4,0.5-0.8,0.9-1.6,0.9
			c-0.3,0-0.7,0.5-1,0.8c-0.4,0.4-0.9,0.7-1.5,0.7c-0.5,0-0.7-0.5-1-0.8c-0.2-0.2-0.4-0.4-0.7-0.5c-0.4-0.1-0.7,0.1-0.7,0.6
			c0,0.7-0.1,1.4-0.1,2.1c0,0.3-0.1,0.5-0.3,0.6c-0.3,0.1-0.7,0.3-1,0.4c-0.7,0.2-1.5-0.3-1.6-1c0-0.8-0.5-0.9-1.1-1
			c-0.3,0.4-0.5,0.8-0.8,1.2c-0.5,0.7-0.9,0.8-1.7,0.5c-0.3-0.1-0.7-0.3-1-0.5c-0.4-0.3-0.5-0.9-0.1-1.3c0.4-0.4,0.9-0.8,1.3-1.2
			c0.1-0.1,0.1-0.4,0.1-0.5c-0.1-0.3-0.3-0.6-0.4-0.9c-0.1-0.2,0-0.5,0.1-0.6c0.5-0.4,0.1-0.7,0-1.1c0-0.1-0.4-0.2-0.5-0.2
			s-0.1,0-0.2,0c-0.2-0.7,0-1.1,0.6-1.3c0.8-0.2,1.3-0.7,1.3-1.6c0-0.4,0.2-0.4,0.5-0.4c0.5,0,1,0,1.5,0.1c0.2,0,0.5,0.2,0.6,0.3
			c0.3,0.4,0.7,0.8,0.8,1.2c0.2,0.6,0.6,0.5,1,0.4c0.2,0,0.4-0.2,0.6-0.1c0.5,0.1,0.8-0.1,0.9-0.3c-0.2-0.7-0.4-1.3-0.6-1.8
			c0-0.1,0.1-0.4,0.2-0.4c0.4-0.2,0.4-0.5,0.4-0.9s0-0.9,0-1.4c-0.6,0-1,0-1.5,0c-0.1,0-0.3,0.3-0.4,0.5c-0.1,0.3-0.1,0.7-0.1,1
			c0,0.1-0.1,0.4-0.3,0.4s-0.4,0-0.5-0.1s-0.2-0.3-0.3-0.4c-0.2-0.4-0.4-0.6-0.9-0.5c-0.2,0-0.4-0.1-0.5-0.2
			c-0.4-0.5-0.8-0.5-1.3-0.4c-0.8,0.3-1.6,0.6-2.4,0.9c-0.6,0.2-0.9,0.7-0.9,1.3s-0.3,0.9-0.8,1.2c-0.2,0.1-0.4,0.3-0.6,0.5
			c-0.6,0.5-0.7,0.9-0.3,1.5c0.1,0.1,0.2,0.2,0.3,0.2c0.9,0.2,0.9,0.2,0.7,1.1c0,0.2-0.1,0.4-0.2,0.5c-0.3,0.2-0.6,0.3-0.8,0
			c-0.1-0.2-0.3-0.4-0.5-0.4c-0.4,0-0.9-0.1-1.2,0.1c-0.4,0.2-0.2,0.7-0.1,1.1c0.1,0.3,0.3,0.6,0.5,1c0.3,0.6,0.2,1.3-0.3,1.7
			c-0.2,0.2-0.6,0.2-0.9,0.2c-0.8-0.2-1.4-0.2-2.1,0.3c-0.8,0.5-1.7,0.4-2.5,0.3c-0.7-0.1-1.4,0-2,0.2c-0.2,0.1-0.5,0-0.6-0.1
			c-0.8-0.8-1.8-0.9-2.9-0.7c-0.7,0.2-1.4,0.3-2.1,0.4c-0.6,0.1-1-0.2-1.2-0.7c0-0.1-0.1-0.2-0.1-0.3c-0.4-0.8-0.4-0.8-1.3-0.6
			c0,0.7,0.1,1.4,0.1,2.1c0,0.4-0.4,0.8-0.8,0.8c-0.5,0-0.9-0.2-1.3-0.5c-1.2-0.9-2.2-0.9-3.3,0.2c-0.6,0.6-1.5,0.6-2.1,0
			c-0.5-0.5-1.1-1-1.5-1.6c-0.1-0.1-0.2-0.4-0.2-0.6c0.1-0.6-0.2-0.7-0.7-0.8c-1.1-0.2-2.2-0.5-3.3-0.8c-0.3-0.1-0.6-0.2-0.9-0.4
			c-0.8-0.4-0.9-0.6-0.7-1.4c0.1-0.5,0-0.7-0.5-0.7c-0.6,0-1.2-0.1-1.7-0.2c-0.5-0.1-0.9-0.2-1.1-0.7c-0.3-0.6-0.8-0.5-1.2,0
			c-0.1,0.1-0.3,0.1-0.5,0.2h-0.1c-0.8,0-1.3-0.4-1.3-1.2c0-0.2-0.1-0.3-0.2-0.5c-0.7-0.1-1.3,0-1.6,0.8c-0.2,0.5-0.6,0.5-1,0.4
			c-0.6-0.1-1.2-0.1-1.8,0c-0.6,0.1-1.2,0.3-1.8,0.4c-0.5-0.9-0.9-1.7-1.4-2.6c-0.3-0.5-0.7-0.9-1.4-0.9c-0.2,0-0.5-0.2-0.7-0.4
			c-0.7-1-1.6-1.1-2.7-0.7c-0.1,0-0.2,0.1-0.4,0.1h-0.1V242c0.5-0.7,0.3-1.3-0.3-1.7c-0.4-0.3-0.5-0.8-0.4-1.3
			c0-0.3-0.1-0.6-0.3-0.8c-0.3-0.3-0.8-0.4-0.9-0.7s0.1-0.7,0.1-1.3c-0.4,0.2-0.8,0.4-1.1,0.6c-0.5,0.5-0.9,0.5-1.5,0.2
			c-0.9-0.6-1.9-0.7-3-0.6c-0.9,0.1-0.9,0.1-1.2-0.8c-0.1-0.3-0.1-0.6-0.3-0.8c-0.1-0.2-0.3-0.4-0.5-0.4c-0.9-0.1-1.3-0.6-1.3-1.4
			c0-0.5,0-1,0-1.6c-1,0.4-2,0.8-3,0.4c-0.9-0.4-1.8-1-2.8-1.7c-0.2,0.2-0.4,0.6-0.7,0.9c-0.2,0.2-0.4,0.4-0.7,0.5
			c-0.5,0.2-1,0-1.2-0.5c-0.1-0.4-0.2-0.9-0.3-1.3c0-0.1,0-0.2-0.1-0.3c-0.4-0.5-0.4-1-0.2-1.6c0.1-0.2-0.1-0.6-0.3-0.7
			c-1.3-0.5-1.9-1.7-2.6-2.7c-0.1-0.1-0.1-0.2-0.2-0.3c-1,0.7-2.2,1.2-2.8,2.3c-0.3,0.6-0.8,0.6-1.4,0.6c-0.2-0.8-0.2-0.9,0.4-1.3
			c0.2-0.1,0.3-0.4,0.3-0.6c0-0.6,0.3-0.9,0.8-1.1c0.5-0.2,1-0.3,1.6-0.5c-0.4-0.5-0.7-1.1-1.1-1.6c-0.2-0.3-0.8-0.3-1.1,0
			c-0.1,0.1-0.2,0.1-0.3,0.1c-1,0.1-1.9,0.2-2.9,0.3c0.2-0.8-0.2-1.5-0.6-2.2c-0.2-0.4,0.1-0.5,0.3-0.7c0.5-0.5,1-0.4,1.4,0.1
			c0.2,0.2,0.3,0.6,0.7,0.3c0.4-0.2,0.4-0.6,0.2-0.9c-0.4-0.5-0.7-1.1-1.5-1.2c-0.4,0-0.6,0.1-0.7,0.5c-0.1,0.2-0.2,0.5-0.5,0.3
			c-0.3-0.1-0.2-0.4-0.1-0.6c0.6-1,0.5-1.8-0.4-2.6c-0.5-0.5-1.2-0.8-1.8-1.2c-0.2-0.1-0.4-0.3-0.3-0.6c0.1-0.3,0-0.7-0.1-1
			c-0.2-0.5-0.5-0.9-0.7-1.4c-0.3-0.6-0.8-0.9-1.5-0.8c-0.4,0.1-0.7,0-0.7-0.5c0-0.1-0.1-0.2-0.2-0.2c-0.6,0-0.8-0.5-1.2-0.8
			c-0.3-0.3-0.7-0.6-1-0.9c-0.2-0.2-0.3-0.5-0.3-0.8c0-0.9,0-1.9,0-2.8c0-0.8-0.2-1.5-0.4-2.2c-0.1-0.3-0.4-0.6-0.7-0.8
			c-0.8-0.6-0.9-0.9-0.5-1.8c0.1-0.2,0.2-0.4,0.2-0.6c0.2-0.9,0-1.7-1-1.9c-0.6-0.1-1-0.5-1.1-1.1c-0.1-0.7-0.5-1.1-1.1-1.4
			c-0.6-0.3-1.2-0.6-1.9-0.9c-0.4-0.2-0.2-0.5-0.1-0.7c0-0.1,0.3-0.2,0.4-0.2c0.1,0,0.2,0.2,0.3,0.3c0.2,0.1,0.4,0.4,0.6,0.4
			c0.2-0.1,0.4-0.4,0.5-0.6c0.2-0.6,0.1-1.1-0.4-1.6c-0.2-0.1-0.2-0.6-0.1-0.9c0.2-0.6,0.4-1.1,0.6-1.7c0.2-0.4,1.4-0.5,1.7-0.1
			c0.1,0.1,0.2,0.3,0.4,0.5c0.7-0.6,0.6-1.3,0.5-1.9c0-0.3-1-1.1-1.3-1.1c-0.2,0-0.3,0.2-0.4,0.3c-0.3,0.4-0.6,0.5-1.1,0.5
			c-0.5-0.1-0.7-0.3-0.9-0.8c-0.1-0.6-0.1-1.1,0.4-1.5c0.9-0.8,1.7-1.6,2.6-2.4c0.5-0.5,0.6-1,0-1.4c-0.5-0.4-1.1-0.7-1.7-0.9
			c-0.4-0.1-0.5-0.3-0.5-0.7c-0.1-1.2-0.2-2.4-0.3-3.7c0-1.1,0.3-1.5,1.4-1.5c0.5,0,0.8-0.1,0.8-0.7c0.1-1.1,0.8-1.6,2-1.6
			c0.7,0,1.1-0.2,1.3-0.8s0.8-0.9,1.4-1c0.3-0.1,0.5-0.3,0.7-0.4c0-0.1,0-0.2-0.1-0.2c-0.3,0-0.5,0-0.8,0c-0.7,0-1.2-0.4-1.1-1.1
			c0.1-0.8,0.4-1.6,0.6-2.4c0.1-0.4,0.4-0.5,0.7-0.5c0.2,0,0.4,0,0.6,0c0.6,0,0.9-0.2,1.1-0.7c0.4-1,1.3-1.6,2.4-1.8
			c0.4-0.1,0.8-0.1,1.2-0.1c0.2,0,0.6,0,0.6,0.1c0.1,0.4,0.2,0.8,0.1,1.2c-0.2,0.6-0.8,0.9-1.4,0.9s-1,0.2-1.2,1
			c0.4,0.1,0.7,0.3,1.1,0.4c0.3,0.1,0.5,0,0.6-0.4c0.1-0.2,0.4-0.5,0.7-0.5c0.8-0.1,1.3-0.4,1.3-1.4c0-0.4,0.2-0.6,0.6-0.7
			c0.4-0.1,0.8-0.2,1.3-0.2c0.5-0.1,0.8,0.3,0.7,0.7c0,0.4-0.1,0.7-0.1,1.2c0.4,0,0.8,0,1.2-0.1c0.6-0.2,0.8-0.6,0.6-1.3
			c-0.2-0.7-0.2-1.2,0.4-1.8c0.3-0.3,0.5-0.7,0.6-1.2c0.2-0.5,0.5-0.8,1-0.6c0.2,0.1,0.3,0.1,0.5,0.1c0.4,0,0.5,0.2,0.4,0.6
			c0,0.1,0,0.3-0.1,0.4c0,0.7,0,0.8,0.8,0.8c0.4,0,0.5,0.2,0.5,0.5c0.1,0.6,0.3,0.7,0.9,0.4c0.2-0.1,0.3-0.1,0.5-0.2
			C77.8,161.6,77.8,161.5,77.7,160.8z"/>
		
			<path fill="#FF671B" stroke="#FFFFFF" stroke-width="6.6154" stroke-linecap="round" stroke-linejoin="round" stroke-miterlimit="10" d="
			M201.1,221.7c-0.9-0.2-1.7-0.3-2.6-0.5c-0.5-0.1-0.5-0.5-0.3-0.9s0.4-0.8,0.5-1.2c0-0.2-0.1-0.4-0.2-0.6c-0.2-0.3-0.4-0.6-0.6-0.9
			l0.1-0.1c-0.2,0-0.3,0-0.5,0c-0.4,0-0.5,0.2-0.5,0.6c0.1,0.7-0.1,0.9-0.7,1.2c-0.6,0.2-1.1,0.4-1.7,0.1c0.1-1.1,0.3-2.2,0.4-3.4
			c-0.4,0.2-0.6,0.3-0.9,0.4c-1.2,0.6-1.7,0.4-2.3-0.9c-0.1-0.2-0.3-0.3-0.6-0.4c-0.5-0.2-0.9-0.5-1.4-0.7c-0.3-0.1-0.4-0.4-0.3-0.7
			c0-0.3,0.1-0.6,0.1-0.9c0-0.1-0.1-0.4-0.2-0.4c-0.8-0.4-0.7-1.1-0.6-1.7c0-0.4,0.2-0.8,0.1-1.1c-0.1-0.2-0.6-0.2-1-0.3
			c-0.8-0.3-0.9-0.4-0.7-1.3c0.2-0.8,0.1-1-0.6-1.3c-0.4-0.2-0.6-0.8-0.3-1.3c0.1-0.2,0.3-0.4,0.4-0.6c0.4-0.4,0.4-0.9,0.3-1.4
			c-0.6,0-1.1,0-1.7,0c-0.6,0-0.7-0.3-0.8-0.7c-0.1-0.7-0.1-1.4-0.2-2.1c-0.1-0.8,0.1-1.1,0.8-1.4c0.5-0.2,0.5-0.6,0.6-1
			c-0.1-0.1-0.3-0.1-0.4-0.1c-0.6,0.1-0.7-0.4-0.9-0.8c-0.3-1-0.7-2-1-3c-0.2-0.4-0.5-0.7-0.9-0.9c-0.2-0.1-0.5-0.3-0.6-0.5
			c-0.1-0.8-0.7-1.2-1.3-1.6c-0.6-0.4-0.7-1.3-0.4-1.9c0.3-0.5,0.6-0.9,0.5-1.5c0-0.1,0.3-0.4,0.4-0.5c1-0.6,1.1-0.9,0.5-2
			c-0.2-0.4-0.5-0.8-0.8-1.1c-0.5-0.8-0.2-1.5-0.1-2.3c0.1-0.3,1.2-0.4,1.5-0.1c0.3,0.2,0.6,0.4,1,0.7c-0.1-0.9-0.2-1.6-0.3-2.3
			c0-0.3-0.1-0.6,0-0.8c0.2-0.5,0-0.7-0.4-1c-0.6-0.5-0.6-1.7-0.1-2.2c0.4-0.4,1.3-0.4,1.6,0.1c0.2,0.3,0.4,0.6,0.6,0.8
			c0.3,0.4,0.8,0.4,0.9-0.2c0.1-0.3,0-0.7,0-1c-0.1-0.4-0.2-0.8-0.3-1.2c-0.1-0.6,0.2-1,0.6-1.3c0.1-0.1,0.3-0.1,0.5-0.1
			c0.6,0.1,0.8-0.1,0.8-0.7c0-0.1-0.2-0.3-0.3-0.4c-0.5-0.2-1-0.4-1.5-0.6c0-0.7,0.4-1.1,0.9-1.4c0.7-0.3,1,0.4,1.6,0.4
			c0-0.1,0.1-0.3,0.1-0.5c0.2-0.6,0.3-1.2,0.5-1.7c0.3-0.8,0.8-1.3,1.7-1.4c0.2,0,0.3,0,0.5-0.1c0.7-0.2,1-0.5,1-1.2
			c0-0.6,0-1.1,0.5-1.5c0.5-0.3,1.1-0.2,1.5,0.2c0.2,0.2,0.6,0.5,1,0.5c1,0,1.4,0.6,1.8,1.3c0.2,0.3,0.3,0.6,0.4,1
			c0.2,0.4,0.4,0.4,0.7,0.2c0.7-0.5,0.6-1.2,0.8-1.9c0-0.1-0.1-0.2-0.2-0.3c-0.2-0.1-0.3-0.2-0.5-0.3c-0.8-0.4-0.9-0.5-0.6-1.5
			c0.2,0,0.4,0,0.7,0c0.4,0.1,0.6-0.1,0.6-0.5c0.1-0.8,0.2-1.5,0.3-2.3c0-0.3,0.2-0.4,0.5-0.4s0.7-0.1,0.9,0
			c0.7,0.4,0.7,1.2,0.1,1.7c-0.2,0.2-0.2,0.6-0.3,1c0.3,0,0.4,0,0.5-0.1c0.4-0.1,0.9-0.2,1.3-0.3c0-0.1,0-0.2,0-0.2
			c-0.6-1-0.4-1.8,0.3-2.7c0.2-0.3,0.4-0.4,0.8-0.3c0.6,0.3,1.1,0.2,1.5-0.4c0.2-0.2,0.6-0.3,0.9-0.4c1-0.2,2-0.5,2.7-1.4
			c0.1-0.2,0.5-0.3,0.8-0.2c0.7,0.1,1.4,0.2,2.1,0.4c0.2,0,0.4,0.3,0.5,0.4c0,0.5-0.4,0.3-0.6,0.4c-0.2,0-0.4,0.2-0.6,0.2
			c0.1,0.1,0.3,0.4,0.4,0.4c0.6,0.2,1.1,0,1.6-0.4c0.2-0.2,0.3-0.4,0.4-0.5c0.7-1.1,1.2-1.3,2.5-1c0.3,0.1,0.6,0.1,0.9,0.2
			c0.2-0.6,0.3-1.2,0.5-1.8c0.2-0.8,0.4-0.9,1.2-1c0.7-0.1,0.8-0.1,0.9-0.9c0-0.4,0.4-0.8,0.8-0.7c0.4,0,0.5,0.3,0.5,0.7
			c0.1,0.7-0.2,1.2-0.8,1.5c0.3,0.6,0.6,0.8,1.2,0.6c0.6-0.2,1.2-0.3,1.6,0.3c0.1,0.2,0.4,0.2,0.7,0.2c0.2,0,0.3,0.1,0.5,0
			c1-0.1,1.9,0,2.3,1.2c0.1,0.4,0.5,0.8,1,0.8c0.1,0,0.3,0,0.3-0.1c0.3-0.4,0-1.2-0.4-1.5c-0.4-0.2-0.8-0.3-1.1-0.4
			c-1.1-0.4-1.2-0.7-1.1-1.5c0-0.2,0-0.4-0.1-0.6c0.2-0.1,0.3-0.1,0.5-0.2c0.4-0.1,0.7-0.4,0.8-0.8c0.1-0.5,0.7-0.9,1.3-0.9
			c0.5,0,0.9,0.3,1,0.8c0.1,0.7,0.1,1.3,0.1,2c0,0.4,0.3,1,0.6,1s0.5-0.1,0.5-0.5c0-0.6-0.1-1.2-0.1-1.9c0-1,0.3-1.2,1.2-1.2
			c1.1,0.1,2.2,0.1,3.4,0.2c0.6,0,1.1,0.2,1.3,0.8c0,0.1,0.1,0.2,0.2,0.3c0.5-0.2,1.1-0.7,1.6-0.6c0.4,0,0.9,0.6,1.2,0.9
			c0.2-1.2,0.5-2.5,0.7-3.8c0.1-0.3,0.2-0.5,0.5-0.5s0.6,0,1-0.1c0.5-0.1,0.8-0.5,0.6-1c-0.1-0.4,0.1-0.6,0.3-0.9
			c0.3-0.3,0.7-0.3,1.1-0.3c0.1,0,0.2,0.2,0.2,0.3c0.1,0.5,0.1,1.1,0.1,1.6s0.2,0.6,0.7,0.4c0.1-0.1,0.2-0.1,0.4-0.2
			c0.7-0.3,1.3,0,1.4,0.7c0.1,0.4,0.3,0.6,0.6,0.6c0.2,0,0.4-0.3,0.5-0.5c0.2-0.3,0.4-0.5,0.7-0.6c0.2-0.1,0.4-0.5,0.6-0.8
			c0.5,0.5,1,1.1,1.5,1.7c0.1,0.2,0.2,0.5,0.2,0.7c0,0.4-0.2,0.6-0.7,0.5s-0.9-0.1-1.3,0.4c-0.2,0.2-0.8,0.2-1.2,0.2
			c-0.3,0-0.5-0.1-0.8-0.1c0.1,0.7,0.2,1.5,0.3,2.2c0,0.2,0,0.3,0,0.5c0.1,0.4-0.1,0.6-0.5,0.6c-0.7,0-0.8,0.1-0.7,0.8
			c0.1,0.5,0.1,0.9,0.2,1.4c0,0.1,0.2,0.4,0.3,0.3c0.2,0,0.4-0.1,0.5-0.3c0.2-0.3,0.2-0.7,0.3-1.1c0.1-0.4,0.3-0.6,0.8-0.6
			c0.8,0,1.6-0.1,2.3-0.2c0.6-0.1,1.3-0.2,1.7-0.7c0.1-0.1,0.3-0.2,0.4-0.2c0.6,0.1,0.8-0.3,1-0.7c0-0.1,0.1-0.1,0.1-0.2
			c0.2-0.1,0.3-0.3,0.5-0.4c0.1,0.2,0.3,0.3,0.4,0.5c0,0.2,0,0.5-0.2,0.6c-0.5,0.4-0.5,0.8-0.2,1.4c0.3,0.4,1.2,0.5,1.5,0.1
			c0.1-0.1,0.1-0.2,0.2-0.3c0.4-0.6,1.1-0.7,1.7-0.3c0.3,0.2,0.6,0.5,1,0.8c0-0.7,0-1.3-0.6-1.7c-0.5-0.4-0.3-1.4,0.3-1.7
			c0.2-0.1,0.5-0.2,0.7-0.4c0.4-0.3,0.8-0.3,1.1,0.1c0.3,0.3,0.4,0.7,0.1,1.1c-0.3,0.4-0.2,0.7,0,1c0.2,0.4,0.3,0.8,0.4,1.1
			s0.3,0.5,0.6,0.7c0.4,0.3,0.4,1.1-0.1,1.4c-0.3,0.2-0.7,0.3-1,0.5c-0.1,0.1-0.3,0.3-0.3,0.4c0.1,0.3,0.2,0.9,0.3,0.9
			c0.8,0.1,1,0.6,1.3,1.3c-0.6,0.3-1.2,0.7-1.8,1.1c0.2,0.6,0.5,1.2,0.8,1.8c0.1,0.1,0.4,0.2,0.6,0.3c0.6,0.1,1.3,0.3,1.9,0.4
			c0.2,0,0.5,0.2,0.5,0.3c-0.1,0.3-0.2,0.6-0.4,0.7c-0.2,0.2-0.6,0.3-0.8,0.4c-0.1,0-0.2,0.1-0.2,0.1c-0.3,0.2-0.9,0.3-0.9,0.8
			c0,0.6,0.6,0.6,1,0.7c0.4,0.1,0.8,0.3,0.8,0.8c0,0.2,0,0.4,0,0.6c-0.2,0.8-0.5,1.5-0.8,2.3c-0.1,0.1-0.3,0.2-0.4,0.3
			c-0.1,0-0.2,0-0.3,0c-0.9-0.2-1.6,0.1-2,1.1c-0.1,0.4-0.4,0.5-0.8,0.5c-0.3,0-0.7,0.4-0.7,0.6c-0.1,0.4,0,0.9,0.3,1.2
			c0.3,0.3,0.6,0.5,0.4,1c-0.1,0.3,0,0.4,0.3,0.5c0.3,0,0.6,0,0.9,0c0,0.3,0,0.5-0.1,0.8c0,0.3-0.2,0.7,0.3,1
			c0.4,0.2,0.4,1.2,0.1,1.7c-0.6,0.9-1.9,1.1-2.8,0.5c-0.1-0.1-0.2-0.3-0.3-0.4c-0.2-0.8-0.6-1-1.4-0.7c-0.2,0.1-0.6,0.2-0.5,0.6
			c0,0.5-0.3,1,0.3,1.3c1.2,0.6,1.4,1.7,1.2,2.9c0,0.1-0.2,0.4-0.3,0.4c-0.6,0.1-1.3,0.4-1.9,0.3c-1.2-0.1-1.4,0.7-1.1,1.6
			c0.3,0.8,0.1,1.2-0.8,1.2c-0.9,0-1.5,0.4-1.7,1.2c-0.1,0.4-0.3,0.8-0.4,1.2c-0.1,0.3-0.3,0.4-0.6,0.4c-0.8,0.1-1.5-0.3-2.2-0.7
			c-0.2-0.1-0.4-0.2-0.8-0.4c0.1,0.3,0.1,0.5,0.2,0.7c0.3,0.7,0.3,1.5,0,2.2c-0.2,0.4-0.1,0.6,0.3,0.7h0.1c0.9,0.5,1,0.6,0.3,1.4
			c-0.3,0.3-0.2,0.5,0,0.8c0.3,0.6,0.2,1.1-0.1,1.4c-0.5,0.5-1.2,0.5-1.7,0.2c-0.2-0.2-0.5-0.3-0.7-0.5c-1-0.6-2.3,0.1-2.3,1.2
			c0,0.4,0,0.7,0,1.1c0.1,0.6-0.1,1.1-0.7,1.4c-0.5,0.2-0.9,0.4-1.4,0.6c-0.3,0.1-0.5,0.4-0.4,0.7c0,0.2,0.1,0.3,0.1,0.5
			c0,0.9-0.2,1.3-1.1,1.5c-0.2,0.1-0.5,0.1-0.7,0.2c-0.2,0.1-0.4,0.2-0.4,0.3c0,0.2,0.1,0.5,0.2,0.7c0.1,0.2,0.4,0.3,0.6,0.4
			c0.7,0.4,0.8,1.1,0.3,1.7c-0.4,0.5-1.1,0.4-1.6-0.1c-0.3-0.4-0.7-0.6-1.2-0.5c-0.2,0-0.4,0.1-0.5,0.2c-0.7,0.6-1.4,1.1-2.1,1.7
			c-0.1,0.1-0.1,0.4-0.1,0.5c0.1,0.8,0,1.1-0.8,1.4c-0.5,0.2-1,0.3-1.5,0.4c0.2,0.4,0.4,0.8,0.6,1.1c0.3,0.8-0.1,1.3-0.9,1.4
			c-0.2,0-0.5,0.2-0.6,0.4c-0.5,1.1-1.5,1.3-2.6,1.3c-0.6,0-1.1,0-1.7,0c-0.3,0-0.5,0.1-0.5,0.4c0,0.5-0.2,0.9-0.7,1.2
			s-0.6,0.8-0.6,1.4c0,0.9-0.3,1.4-1.2,1.7c-1,0.3-2.1,0.5-3.1,0.7c-0.6,0.1-0.9,0.6-0.8,1.1c0,0.2,0.1,0.4,0.2,0.6
			c0.3,0.8,0,1.4-0.8,1.5c-0.9,0.2-1.7-0.1-2.5-0.5c-0.1,0-0.1-0.3-0.1-0.4c0.1-0.5,0.2-1,0.3-1.6c-0.1,0-0.2-0.1-0.2-0.1
			c-0.7,0.1-1.2-0.2-1.6-0.8c-0.1-0.1-0.1-0.2-0.2-0.2c-0.2-0.2-0.6-0.5-0.6-0.4c-0.3,0.2-0.6,0.5-0.6,0.8c-0.2,1.1,0,1.4,1.1,1.9
			c0.1,0,0.2,0.1,0.3,0.2c0.3,0.8-0.2,1.6-1.1,1.8c-0.6,0.1-1.1,0.1-1.7,0.2c-0.7,0.1-1.3,0.4-1.9,0.9c-0.1,0.1-0.3,0.3-0.5,0.3
			c-0.4,0-1,0-1.2-0.2c-0.3-0.3-0.2-0.9-0.2-1.3c0-0.1,0.2-0.2,0.3-0.2c0.1-0.1,0.3-0.1,0.4-0.2c1-0.4,1.1-0.4,0.8-1.4
			c-0.1-0.2-0.6-0.4-0.9-0.6c0,0-0.1,0-0.2,0c-0.6,0.2-1.2,0.6-1.9,0.6c-0.1,0-0.4,0.5-0.4,0.8c-0.1,0.5-0.3,0.9-0.8,1.1
			c-0.6,0.3-1.2,0.6-1.8,0.8c-0.5,0.2-0.9-0.1-0.9-0.6c0-0.3,0.1-0.7,0.2-0.9C201.2,222.5,201.2,222.5,201.1,221.7z"/>
		
			<path fill="#FF671B" stroke="#FFFFFF" stroke-width="6.6154" stroke-linecap="round" stroke-linejoin="round" stroke-miterlimit="10" d="
			M208.8,88.3c-0.4-0.6-0.8-1-1.5-1.2c-0.4-0.1-0.8-0.3-1.2-0.6c-0.2-0.1-0.3-0.5-0.3-0.7c0.1-0.2,0.3-0.5,0.5-0.7
			c0.1-0.1,0.4-0.1,0.5-0.2c0.3-0.3,0.6-0.6,1-0.5c0.6,0.1,1.2,0.3,1.8,0.5c0.1,0,0.1,0.4,0.2,0.6c0.1,0.2,0.1,0.6,0.3,0.6
			c0.4,0,0.8,0,1.2-0.1c0.1,0,0.2-0.1,0.2-0.2c0.5-0.8,1.3-1.1,2.3-1c0.4,0,0.8,0,1.1-0.1c0-1,0-1.8,0-2.7c0-0.2-0.1-0.7,0.3-0.6
			c0.3,0,0.8,0,0.8,0.6c0,0.2,0.2,0.5,0.4,0.6c0.8,0.6,0.9,0.9,0.2,1.6c-0.4,0.4-0.2,0.7,0.1,0.9c0.4,0.2,0.9,0.4,1.3,0.5
			c0.1,0,0.3-0.1,0.4-0.3c0.2-0.2,0.4-0.5,0.7-0.8c0.2-0.2,0.6-0.3,0.6-0.6c0.1-0.4,0-0.8-0.2-1.1c-0.1-0.3-0.2-0.5,0-0.6
			s0.6-0.1,0.8,0s0.3,0.4,0.4,0.6c0.2,0.3,0.4,0.4,0.7,0.4c0.2,0,0.4,0.1,0.6,0.1c0.1,0,0.3,0.1,0.4,0c0.9-0.5,1.9-0.4,2.8-0.4
			c0.8,0.1,1.3-0.3,1.7-1c0.5-1.1,0.6-1.1,1.8-0.9c0.3,0.1,0.7,0.1,1.1,0.2c0-0.3,0.1-0.5,0.1-0.7c0.1-0.4,0.4-0.6,0.7-0.4
			c0.6,0.4,1.3,0.7,1.9,1.1c0.4,0.3,0.6,0.7,0.8,1.1c0.2,0.6-0.1,1-0.7,1c-0.8,0-1.5-0.1-1.9-0.8c-0.3-0.6-0.8-0.7-1.4-0.6
			c-0.3,0.1-0.9-0.2-1,0.3s0.4,0.5,0.7,0.7c0.4,0.3,0.3,0.7,0.3,1.1c0,0.2-0.1,0.4-0.2,0.6c-0.2,0.7-0.1,0.9,0.5,1.2
			c0.4,0.2,0.7,0.5,0.7,0.9c0.1,0.4,0.3,0.6,0.7,0.4c0.1,0,0.1,0,0.2,0c1-0.2,1.5-0.8,1.6-1.8c0-0.2,0.1-0.5,0.3-0.6
			c0.3-0.2,0.6-0.1,0.7,0.2c0.2,0.3,0.4,0.7,0.6,1c0.2,0.4,0.4,0.9,0.6,1.3c0.3,0.7,0.8,1.1,1.6,1.2c0.7,0.1,1.1,0.4,1.2,1.1
			c0.1,0.5,0.4,0.6,0.8,0.6c0.4,0,0.9,0,1.3-0.1c1.1-0.1,1.6,0.1,2.1,1.1c0.7,1.4,1.1,2.9,0.8,4.5c-0.1,0.4-0.3,0.7-0.5,1.1
			c-0.1,0.1-0.2,0.3-0.4,0.4c-0.9,0.6-1,1.5-0.9,2.5c0.2,1.2,0.5,2.4,0.7,3.7c0.1,0.3,0,0.5-0.2,0.7c-0.4,0.4-0.7,0.9-1,1.3
			c0.7,1.4,1.8,0.7,2.7,0.6c0.3,0.5,0.8,0.8,0.7,1.5c-0.1,0.4-0.1,0.6-0.4,0.8c-0.5,0.4-1,0.7-1.4,1.2c-0.2,0.2-0.3,0.5-0.2,0.7
			c0.3,0.5,0.1,1,0,1.6c0,0.3-0.1,0.6-0.1,0.8c0.1,0.6-0.1,0.9-0.8,1c-0.1-0.2-0.2-0.4-0.2-0.6c-0.2-0.4-0.3-0.8-0.6-1.1
			c-0.5-0.6-1.3-0.8-1.9-0.3c-0.4,0.3-0.9,0.5-1.4,0.4c-0.7,0-1.3,0.1-1.6,0.8c-0.1,0.2-0.4,0.3-0.7,0.4c-0.2,0.1-0.5,0.1-0.8,0.2
			c0.4,1,0.7,1.9,1,2.8c-1.1,0.4-0.9,1.3-0.8,2.3c-0.2,0-0.5,0.1-0.7,0.1c-0.2,0.1-0.4,0.2-0.4,0.4c-0.1,0.2,0,0.5,0.3,0.6
			c0.4,0.1,0.9,0.3,1.4,0.6c-0.3,0.5-0.6,1-0.9,1.5c-0.3,0.4-0.3,0.9,0,1.3s0.3,0.8,0.2,1.2c-0.2,0.7-0.2,1.5-0.5,2.2
			c-0.1,0.3-0.4,0.7-0.7,0.9c-0.5,0.3-1,0.4-1.6,0.6c-0.1-0.2-0.1-0.3-0.2-0.5c-0.2-0.6-0.5-0.7-1.1-0.5c-0.1,0-0.2,0.2-0.2,0.4
			c-0.1,0.3-0.1,0.6-0.3,0.8c-0.6,0.7-1.2,0.9-1.9,0.3c-0.2-0.2,0-0.7,0-1.1c0-0.1,0.2-0.1,0.3-0.2c0.7-0.5,0.7-0.6,0.5-1.4
			c-0.1-0.4,0.1-0.9,0.1-1.3c-0.6,0.1-1.3,0.9-1.4,1.7c-0.2,1.1-0.2,1.2-1.4,1.4c-0.2,0-0.5,0-0.5,0.4c0.1,1.1,0,2.1-0.5,3.2
			c0.5,0,0.8,0,1.2,0c0.3,0,0.7,0,1,0.1c1.1,0.3,1.5,1.6,0.6,2.3c-0.7,0.6-1.6,1-2.5,1.4c-0.3,0.2-0.8-0.3-0.8-0.7
			c0-0.1,0-0.1,0-0.2c-0.1-0.1-0.2-0.3-0.3-0.4c-0.1,0.1-0.3,0.3-0.2,0.4c0.1,0.5-0.1,0.7-0.4,0.9c-0.7,0.6-0.6,1,0.2,1.4
			c0.3,0.1,0.6,0.3,0.9,0.4c0.6,0.3,0.7,0.8,0.4,1.4c-0.6,1.1-1.5,1.9-2.9,1.8c-0.2,0-0.3,0-0.5,0c-0.3,0-0.6-0.2-0.8,0.3
			c-0.1,0.5-0.2,0.9,0.4,1.2c0.3,0.1,0.5,0.2,0.8-0.2c0.6-0.9,2.1-1.1,3-0.5c0.3,0.2,0.3,1.1-0.1,1.2c-0.8,0.4-1.6,1-2.7,0.7
			c-0.2-0.1-0.4,0-0.6,0c-0.6,0.1-0.9,0.4-0.6,1c0.5,1,0.4,1.3-0.6,2.2c-0.1,0-0.1,0.1-0.2,0.1c-0.9,0.9-1.9,1.3-3.2,0.9
			c-0.2,0-0.3,0-0.5,0.1c0.3,0.2,0.6,0.3,0.9,0.6c0.2,0.2,0.4,0.3,0.5,0.6c0.2,0.8-0.3,1.5-1.2,1.5c-0.5,0-0.9,0-1.4-0.1
			c-0.7-0.1-1.3,0-1.6,0.7c-0.1,0.2-0.3,0.3-0.5,0.4c-0.5,0.3-1.2,0.6-1.6,1c-0.7,0.7-1.5,0.5-2.2,0.4c-0.5-0.1-0.7,0.1-0.8,0.5
			c-0.2,0.4-0.4,0.8-0.6,1.2c-0.3,0.5-0.8,0.7-1.4,0.6c-0.5-0.1-0.9-0.2-1.4-0.3s-1,0-1.2,0.5c-0.3,0.7-0.9,0.7-1.5,0.5
			c-0.7-0.2-1.3-0.4-2-0.6c-0.5-0.2-1-0.4-1.1-1c-0.1-0.2-0.5-0.3-0.7-0.4c-0.2-0.1-0.5-0.2-0.7-0.4c-0.4-0.6-0.7-0.7-1.4-0.5
			c-0.2,0.1-0.4,0.1-0.6,0.2c-0.4,0.1-0.7,0-0.9-0.3c-0.5-0.6-1.3-0.8-2-0.2c-0.6,0.5-1,1.1-1.4,1.7c-0.6,0.8-0.5,0.9-1.5,0.6
			c-0.6-0.2-1.1-0.5-1.4-1.1c-0.1-0.2-0.2-0.4-0.3-0.6c-0.4-0.6-1-0.7-1.5-0.2c-0.7,0.7-0.9,0.7-1.8,0.4c-0.6-0.2-1.3-0.2-2-0.2
			c-0.3,0-0.6,0.1-0.8-0.4c-0.1-0.4-0.3-0.7,0.2-1c0.4-0.3,0.9-0.6,0.5-1.3c-0.4,0-0.8,0.1-1.2,0.1c-0.8,0.1-1.4-0.3-1.7-1.1
			c-0.2-0.5-0.4-1-0.6-1.5c-0.4,0.4-0.7,0.9-1.1,1.3c-0.1,0.1-0.4,0.2-0.6,0.2c-1.6-0.3-1.6-0.4-1.6-2c0-0.8,0-0.8-0.8-1.1
			c-0.6-0.2-1.3-0.3-1.4-1.1c0-0.2-0.4-0.3-0.6-0.4c-0.8-0.2-0.9-0.2-0.9-1.1c0-1.1-0.1-2.2-0.1-3.3c0-0.2,0-0.3,0-0.5
			c-0.3,0-0.5,0-0.7,0c-1,0.2-1.7-0.5-1.4-1.5c0.2-0.7,0.6-1.3,0.9-1.9c0-0.1,0.1-0.2,0.2-0.3c-0.4-0.5-0.7-0.9-1.1-1.4
			c-0.3-0.5-0.6-1-1-1.5c0.5-0.3,0.6-0.7,0.6-1.2c0-0.1,0-0.2,0-0.3c-0.2-1.1,0.1-1.9,1-2.6c0.1-0.1,0.3-0.3,0.4-0.4
			c0.3-0.4,0.1-0.9-0.3-1c-0.7-0.2-0.9-1.1-0.3-1.6c0.8-0.6,1.6-1.2,2.4-1.8c0.5-0.4,0.6-1.1,0.1-1.5c-0.7-0.6-0.7-0.7-0.4-1.5
			c0.4-1,1.1-1.8,1.8-2.5c0.3-0.2,0.4-0.4,0.2-0.8c-0.5-1.4-0.2-2.3,1.3-2.9c0.4-0.2,0.9-0.3,1.4-0.5c-0.6-0.2-1-0.4-1.5-0.6
			c-0.6-0.2-0.7-0.9-0.3-1.3c0.8-0.8,1.7-1.6,2.5-2.4c0.1-0.1,0.2-0.2,0.3-0.3c0.6-0.5,0.7-1.1,0.4-1.8c-0.2-0.5-0.4-0.9,0.1-1.4
			c0.6-0.5,1.4-0.3,1.6,0.4c0.1,0.5,0.1,1.1,0.1,1.6c0,0.2,0,0.3,0,0.5c0.6-0.1,1.1-0.2,1.6-0.3c0.5,0,1.1,0,1.6,0
			c0.1-0.3,0.1-0.5,0.2-0.8c0.1-0.5-0.2-0.9-0.8-0.8c-0.9,0.1-1.1,0-1.3-0.8c-0.2-0.7-0.6-1.2-1.2-1.4c-0.4-0.2-0.8-0.4-0.7-1
			s0.1-1.2,0.8-1.4c0.9-0.2,1.7-0.5,2.6-0.7c0.4-0.1,0.5-0.3,0.7-0.6c0.2-0.7,0.5-1.3,0.7-2c0.1,0,0.1,0,0.2,0
			c-0.1-0.2-0.3-0.3-0.3-0.5c-0.1-0.3-0.3-0.7-0.2-1c0.1-0.4,0.4-0.7,0.9-0.6c0.7,0,1.3,0,2,0c0.2-0.4,0.2-0.7-0.3-0.9
			c-0.1,0-0.2-0.3-0.2-0.4c0-0.3-0.2-0.7,0.2-1c0.6-0.3,1.1-0.3,1.7-0.1c0.7,0.3,0.8,0.3,1.1-0.5c0.3-0.7,0.6-1.4,0.9-2.2
			c0.1-0.2,0.2-0.3,0.4-0.4c0.3-0.1,0.6-0.1,0.8-0.1c0.5,0,0.8,0.2,0.9,0.7c0,0.1,0.2,0.3,0.3,0.4c0.1-0.1,0.3-0.2,0.4-0.3
			c0.2-0.5,0.4-1,0.6-1.5c0.1-0.2,0.3-0.4,0.5-0.4c1.3-0.3,2.5-0.6,3.8-1c0.1,0,0.3-0.2,0.3-0.4c0.1-0.3,0.1-0.7,0.1-1
			c0-0.8,0.6-1.1,1.4-1.4c0.5-0.2,0.9,0.1,1.2,0.8c0.2,0.3,0.3,0.7,0.4,1c0.1,0.2,0.2,0.6,0.4,0.7c0.5,0.1,1.1,0.3,1.5-0.2
			c0.6-0.7,1.4-0.9,2.2-0.7c0.5,0.1,0.9,0.3,1.3,0.5C208,88.9,208,88.9,208.8,88.3z"/>
		
			<path fill="#FF671B" stroke="#FFFFFF" stroke-width="6.6154" stroke-linecap="round" stroke-linejoin="round" stroke-miterlimit="10" d="
			M123.2,113.1c-0.2,0-0.4,0-0.5,0c-0.4,0.1-0.7-0.1-1.1-0.4c-0.5-0.3-1.1-0.5-1.6-0.7c-0.2-0.1-0.6-0.2-0.6-0.4
			c-0.1-0.4-0.2-0.9,0.3-1.2c0.4-0.3,0.9-0.6,1.4-0.9c-0.5-0.8-1-1.6-1.5-2.3l-0.1-0.1c-0.7-0.2-0.8-0.6-0.6-1.3
			c0.1-0.5,0.1-1.1,0.6-1.4c0.1-0.1,0.1-0.3,0.1-0.5c0-0.1-0.2-0.2-0.4-0.2c-0.5,0-1,0-1.5-0.1c-0.6-0.1-0.8-0.5-0.5-1.1
			c0.3-0.5,0.5-1.1,1.3-1.1c0.2,0,0.4-0.3,0.5-0.4c0.1-0.7,0.6-1.1,1.2-1.4c0.1-0.1,0.2-0.2,0.3-0.2c-0.3-0.8-0.5-1.6-0.8-2.3
			c0.4-0.6,0.8-0.7,1.5-0.5c1.1,0.3,2,0.8,2.7,1.8c0.2-0.3,0.3-0.6,0.4-0.8c0.2-0.5,0.5-0.7,1-0.7c0.8,0,1.5-0.2,2-1
			c-0.3,0-0.6,0-0.8-0.1c-0.4-0.1-0.8-0.1-1.2-0.3c-0.6-0.3-0.7-0.7-0.6-1.4c0-0.1-0.1-0.4-0.2-0.5c-0.8-0.6-1-1.2-0.7-2.1
			c0.2-0.6,0.5-1.1,0.7-1.7c-0.5-0.5-1-1-1.8-0.9c-0.2,0-0.6-0.2-0.6-0.4c-0.1-0.6-0.1-1.3,0.4-1.8c0.7-0.8,1.4-1.6,2-2.4
			c0.8-1,1.5-2,2.2-3.1c0.4-0.6,0.2-1.2,0.2-1.9c0-0.4-0.1-0.8-0.2-1.2c-0.1-0.5,0.1-0.9,0.6-0.9c0.9-0.2,1.7-0.3,2.6-0.4
			c0.1,0,0.2,0,0.3,0c-0.1-0.7-0.3-1.3-1.1-1.3c0-0.2,0.1-0.4,0.1-0.6c0-0.6,0.1-1,0.9-1c0.1,0,0.4-0.3,0.3-0.5
			c-0.2-0.9,0.2-1.6,0.8-2.1c0.3-0.3,0.4-0.6,0.2-1.1c-0.4-0.9-0.4-1.8,0.2-2.6c0.4-0.5,2-0.9,2.4-0.4c0.2,0.1,0.2,0.5,0.2,0.8
			c-0.1,0.8-0.3,1.5-0.5,2.3c0.5-0.1,1.1,0.1,1.4-0.5c0-0.1,0.3-0.1,0.4-0.1c0.4,0,0.7,0,1.1,0.1c0.8,0.1,1.2-0.3,1.3-1.1
			c0-0.2,0-0.3,0.1-0.5c0.1-0.6,0.1-0.6-0.6-0.7c-0.1,0.7-0.5,1.1-1.1,1.1c-0.5,0-0.8-0.2-0.7-0.6c0.1-0.9,0.2-1.8,0.4-2.6
			c0.1-0.4,0.4-0.6,0.8-0.6c0.9-0.1,1-0.2,1.1-1.1c0-0.2,0.2-0.4,0.3-0.6c0.3-0.4,0.5-0.8,0.8-1.2c0.5-0.7,1-0.7,1.4,0
			c0.1,0.2,0.4,0.3,0.6,0.3c0.3,0.1,0.6,0,0.9,0c0.6-0.1,1.1,0,1.5,0.5c0.1,0.1,0.2,0.3,0.2,0.5c-0.1,0.7-0.1,1.4,0.4,1.9
			c0.1,0.2,0.4,0.3,0.6,0.3c0.1,0,0.3-0.2,0.4-0.4c0.2-0.5,0.3-1,0.4-1.5c0-0.1-0.1-0.3-0.2-0.4c0-0.1-0.2,0-0.2-0.1
			c-0.3-0.5-0.7-1-0.8-1.6c-0.1-0.3,0.2-0.8,0.4-1.1c0.1-0.2,0.5-0.4,0.8-0.6c-0.1-0.2-0.2-0.5-0.3-0.8c-0.3-1-0.2-1.3,0.7-1.8
			c0.3-0.2,0.3-0.4,0.4-0.7c0.2-0.4,0.4-0.9,0.8-1.1c0.4-0.2,0.9-0.1,1.3,0.1c0.4,0.2,0.4,1,0,1.3c-0.1,0.1-0.1,0.1-0.2,0.1
			c-0.7,0.4-0.7,0.5-0.3,1.2c0.8-0.1,1.5-0.4,2-1.2c0.7-1.2,1.7-1.2,2.6-0.2c0.2,0.2,0.5,0.3,0.7,0.3c0.4,0.1,0.5-0.3,0.6-0.6
			c0.3-0.9,0.7-1.7,1-2.6c0.2-0.6,0.7-0.8,1.3-0.7c0.2,0,0.4,0,0.5,0.1c0.5,0.1,1.1,0,1.4-0.4c0.6-0.7,1.4-0.9,2.3-0.7
			c0.3,0.1,0.6,0,0.9,0c0.6,0,0.9-0.5,0.7-1c-0.2-0.8-0.2-1.1,0.4-1.3c0.9-0.4,2,0.4,2,1.3c0,0.5-0.1,0.9-0.2,1.4
			c-0.1,0.4,0.1,0.6,0.4,0.9c0.2,0.2,0.4,0.5,0.5,0.9c0.3,1,1.4,1.5,2.3,0.9c0.3-0.2,0.5-0.7,0.5-1.1c0-0.6-0.1-1.2-0.2-1.7
			c0-0.2-0.1-0.3-0.1-0.6c0.4-0.2,0.9-0.3,1.3-0.5c0.5-0.2,0.9-0.5,1.3-0.8c0.7-0.5,1.2-0.6,1.8,0.1c0.5,0.6,0.9,1.2,1.4,1.8
			c0.3,0.4,0.3,0.9,0.1,1.4c-0.5,1.2-0.4,1.6,0.6,2.5c0.4,0.4,0.8,0.7,0.8,1.4c0,0.1,0.2,0.2,0.3,0.4c0.1-0.1,0.3-0.3,0.3-0.4
			c0-0.2,0-0.5,0-0.7c0-0.5,0.5-1.1,1-1c0.7,0.1,1.3,0.3,2,0.4c0.1,0,0.2,0.2,0.2,0.4c0.1,0.9,0.3,1.9,0.3,2.8
			c0,0.4,0.1,0.6,0.5,0.6c0.5,0,0.9,0.1,1.4,0.1s0.8-0.1,0.9-0.6c0.1-0.4,0.2-0.8,0.3-1.2c0.5,0.2,1.1,0.2,1.5,0.5
			c0.2,0.1,0.4,0.5,0.5,0.8c0.2,0.6,0.4,1.2,0.6,1.8c0.1,0.3,0.1,0.8,0,1.1c-0.3,0.8-0.3,1.6,0,2.5c0.3,0.6,0.2,1.3-0.2,1.9
			c-0.2,0.2-0.3,0.5-0.5,0.7c-0.6,0.7-0.5,0.6,0,1.2c0.4,0.5,0.5,0.8,0.2,1.4c-0.1,0.2-0.3,0.4-0.3,0.7c-0.1,0.5-0.4,0.5-0.9,0.4
			c0-0.4,0-0.8,0-1.2c0-0.1-0.2-0.3-0.3-0.4c-0.1,0.1-0.3,0.2-0.3,0.3c-0.1,0.5-0.1,1-0.1,1.4c0,0.5,0.3,0.9,0.8,1.2
			c0.7,0.4,0.9,1.5,0.4,2.1c-0.1,0.1-0.1,0.2-0.2,0.2c-0.6,0.6-0.8,1.3-0.5,2.1c0.2,0.4,0.1,0.8-0.3,1.1c-0.5,0.5-0.7,1.1-0.4,1.8
			c0.1,0.2,0,0.4,0,0.5c-0.2,0.4-0.5,0.8-0.8,1.2c-0.4,0.6-1,1-1.7,1.3c-0.6,0.2-0.6,0.7-0.2,1.1c0.3,0.3,0.5,0.5,0.2,1
			c-0.2,0.5-0.1,1,0.3,1.5c0.2,0.2,0.5,0.6,0.5,0.9c0,1.1,0.2,0.8-0.9,1.1c-0.5,0.1-1,0.1-1.4,0.1c-0.5,0-0.9-0.2-1-0.8
			c-0.2-0.5-0.8-0.6-1.1-0.1c-0.3,0.6-0.7,0.9-1.4,0.9c-0.3,0-0.4,0.2-0.4,0.5c0,0.4,0,0.8,0,1.3c0.1,0,0.2,0,0.3-0.1
			c0.4-0.3,0.7-0.2,1,0.2c0.1,0.2,0.4,0.3,0.6,0.4c0.1-0.2,0.3-0.4,0.3-0.6c0.1-0.2,0.2-0.5,0.2-0.7c0-0.4,0.4-0.5,0.6-0.5
			c0.1,0,0.4,0.1,0.4,0.2c0,0.2-0.1,0.5-0.2,0.6c-0.5,0.5-0.5,1-0.3,1.6c0.1,0.4,0.2,0.8,0.4,1.2c-1,0.3-1.7,0.9-1.5,2
			c-1.1,0.2-1.4,0.7-1.3,1.8c0,0.2,0,0.4-0.1,0.6c-0.5,0.5-0.5,0.9,0.1,1.4l0.1,0.1c0.9,0.6,1,0.7,0.7,1.8c-0.1,0.5-0.1,0.8,0.4,0.9
			s0.6,0.5,0.6,0.9s-0.2,0.7-0.6,0.8c-0.8,0.3-1.6,0.5-2.4,0.3c-0.2,0-0.4,0-0.8,0c0.2,0.4,0.3,0.7,0.4,0.9c0,0.1,0.1,0.2,0.1,0.3
			c0.2,0.9,0.4,1.1,1.3,1.1c0.5,0,1,0.1,1.3,0.5c0.2,0.2,0.2,0.4,0.3,0.7c0.1,0.5-0.1,0.7-0.5,0.9c-1,0.5-2,1.1-3.1,1.6
			c0.4,0.3,0.7,0.5,1,0.7c0.6,0.5,0.6,0.9,0.1,1.4c-0.2,0.2-0.5,0.4-0.7,0.6c-0.4,0.4-0.4,0.8,0,1.1c0.2,0.2,0.3,0.3,0.2,0.6
			c-0.2,0.4-0.4,1-0.7,1.3c-0.6,0.6-0.7,1.2-0.6,1.9c0.2,0.9,0.2,0.9-0.6,1.3c-0.6,0.4-1.2,0.8-1.5,1.5c-0.1,0.3-0.6,0.4-1,0.5
			c-0.3,0.1-0.7,0-1-0.1c-0.8-0.1-1.1,0.1-1.5,0.8c-0.4,0.9-0.4,0.9,0.3,1.6c0.5,0.4,0.2,0.8,0.1,1.2c0,0.3-0.3,0.5-0.6,0.5
			c-0.7,0.1-1.2,0.4-1.6,0.9c-0.1,0.2-0.4,0.2-0.6,0.3c-0.2,0.1-0.5,0.2-0.6,0.4c-0.6,1-1.1,1.2-2.2,0.9c-0.4-0.1-0.7-0.2-1.1-0.3
			c-0.9-0.3-1.3,0-1.3,0.9c0,0.4-0.6,0.9-1.1,0.9c-0.5,0.1-1,0.1-1.5,0.1c-0.7,0-1.2,0.3-1.4,1c-0.5,1.4-1.1,1.7-2.6,1.3
			c-0.4-0.1-0.9-0.3-1.3-0.4c-0.8-0.3-1.5-0.2-2.2,0.5s-1.8,0.7-2.5-0.1c-0.1-0.1-0.3-0.4-0.2-0.5c0.2-0.7-0.3-1-0.8-1.2
			c-0.1,0-0.2-0.1-0.3-0.1c-0.5,0.5-0.9,0.9-0.7,1.7c0.5,0,0.7,0.3,0.8,0.7c0.2,0.5,0.6,0.8,1.1,0.8c0.2,0,0.5,0.1,0.8,0.1
			c0,0.3,0.1,0.5,0,0.7s-0.3,0.5-0.5,0.6c-0.3,0.1-0.7,0.2-0.9-0.2c0-0.1-0.1-0.2-0.2-0.3c-0.1-0.4-0.3-0.5-0.6-0.3
			c-0.9,0.4-1.5,0-2-0.6c-0.5-0.7-1.1-1.3-2.1-1.2c-0.4,0-0.6,0.1-0.7,0.5c-0.1,0.4-0.3,0.4-0.7,0.4c-0.8,0.1-1.4-0.2-1.9-0.9
			c-0.7-0.9-0.8-1.8-0.8-2.8c0-0.2,0-0.4,0-0.6c-0.7,0.1-1.1,0.3-1.2,0.9c-0.1,0.4-0.3,0.4-0.6,0.5c-1.5,0.1-2.7-0.7-3.7-1.6
			c-0.2-0.2-0.1-0.7-0.1-1.1c0-0.1,0.1-0.2,0.2-0.3c0.1-0.3,0.3-0.7,0.2-0.8c-0.2-0.2-0.6-0.4-1-0.4c-0.2,0-0.5,0.1-0.7,0.1
			c-0.4,0.1-0.6,0-0.9-0.3c-0.5-0.5-0.9-0.5-1.3,0.1c-0.3,0.5-0.8,0.5-1.2,0.6c-0.2,0-0.6-0.4-0.5-0.6c0.2-1.2-0.3-2.2-0.6-3.3
			c-0.2-0.7-0.2-1.4-0.1-2c0.1-0.4,0.2-0.8-0.2-1.2c-0.2-0.3-0.3-0.7-0.4-1.1c-0.1-0.3-0.2-0.5-0.6-0.5c-0.1,0-0.3,0-0.4,0
			c-0.8-0.1-0.9-0.2-1.1-1c-0.1-0.3,0.4-0.8,0.8-0.8c0.2,0,0.4,0.1,0.6,0.1c0.3,0.1,0.5,0.1,0.6-0.3
			C122.9,114.1,123,113.6,123.2,113.1z"/>
		
			<path fill="#FF671B" stroke="#FFFFFF" stroke-width="6.6154" stroke-linecap="round" stroke-linejoin="round" stroke-miterlimit="10" d="
			M64.8,149.9c-0.8,0.1-1.5,0.2-2.2,0.3c-0.1,0-0.3-0.1-0.5-0.2c0,0,0-0.1-0.1-0.1c-0.9-1.3-0.5-2.1,1-2.4c0.2,0,0.5,0,0.7-0.1
			s0.4-0.2,0.4-0.3c0-0.2-0.1-0.4-0.3-0.5c-0.1-0.1-0.3-0.2-0.5-0.2c-0.5-0.2-0.9-0.1-1.2,0.3c-0.9,1-2.1,1.2-3.3,1.1
			c-0.7-0.1-1.6-1.2-1.5-1.9c0-0.2,0.2-0.4,0.3-0.5c0.3-0.2,0.7-0.4,1.1-0.7c0.2-0.1,0.4-0.3,0.5-0.5s0.1-0.5,0.1-0.7
			c0-0.1-0.3-0.1-0.5-0.1c-0.5,0-1.1,0-1.6-0.1c-0.9-0.2-1.2-0.7-0.9-1.6c0.1-0.2,0.1-0.5,0-0.7c-0.4-0.8-0.5-1.6,0.1-2.4
			c-0.3-0.2-0.6-0.3-0.9-0.5c-0.2,0.3-0.3,0.6-0.5,0.9c-0.3,0.3-0.6,0.7-1,0.9c-0.5,0.3-0.8,0.2-1.1-0.3c-0.2-0.4-0.6-0.6-1-0.5
			c-0.6,0-1-0.1-1-0.8c0-0.4-0.2-0.8-0.2-1.2c0-0.6,0.4-1,1-0.9c0.3,0,0.5,0.1,0.8,0.2c0.2,0.1,0.5,0.2,0.9,0.3c0-0.6,0-1.1,0-1.6
			c0-0.1-0.1-0.3-0.2-0.4c-0.7-0.7-0.8-1.2-0.4-2.1c0-0.1,0.1-0.2,0.1-0.3c-0.4-0.3-0.7-0.4-1,0.1c-0.6,1-1.7,1-2.7,0.9
			c-0.1,0-0.2-0.2-0.3-0.3s-0.2-0.3-0.3-0.3c-0.5-0.3-0.6-0.7-0.5-1.2s0-1,0.5-1.5c0.2-0.1,0.1-0.6,0.1-0.9c0-0.4-0.1-0.8-0.1-1.2
			c0-0.7,0.2-1.3,0.8-1.6c0.4-0.2,0.3-0.6,0.3-0.9c0-0.1-0.3-0.3-0.4-0.4c-0.1-0.1-0.2-0.2-0.3-0.3c-0.2-1.1-0.3-2.1-0.4-3.2
			c0-0.2,0.2-0.4,0.3-0.7c0.1-0.2,0.2-0.3,0.3-0.5c0.2-0.9,0.2-1.8-0.3-2.6c-0.2-0.3-0.4-0.6-0.4-1c-0.1-0.5,0-1.1,0.6-1.3
			c1-0.4,1.4-1.2,1.3-2.4c-0.1-0.8,0.3-1.6,0.4-2.4c0.1-0.5,0-1,0.1-1.5c0-0.2,0.2-0.5,0.3-0.6c0.3-0.2,0.6-0.4,0.9-0.5
			c0.2-0.1,0.4-0.1,0.5,0c0.5,0.6,1,0.1,1.6,0.1c-0.1-0.6-0.2-1.2-0.3-1.8c-0.1-0.5,0.3-1,0.8-1c0.2,0,0.5,0,0.7,0
			c0.7,0,0.9-0.2,1-0.9c0.1-0.4,0.1-0.8,0.1-1.2c0-0.1-0.2-0.3-0.4-0.4c-0.3-0.1-0.8,0.2-0.9-0.3c-0.2-0.7-0.3-1.4,0.2-2
			s1.1-0.7,1.8-0.3c0.1,0.1,0.3,0.1,0.3,0c0.1-0.1,0.2-0.3,0.2-0.5c0-0.7-0.1-1.4-0.1-2.1c0-0.3,0.1-0.4,0.4-0.5
			c1.1-0.3,2.2-0.7,3.4-0.4c0.2,0,0.5-0.1,0.6-0.3c0.6-0.7,1.2-1.5,1.8-2.2c0.5-0.6,1-1.1,1.7-1.2c0.6-0.1,1-0.5,1.1-1.1
			c0.1-0.5,0.4-0.7,0.9-0.6c0.5,0,1.1-0.1,1.6-0.2c0.2-0.1,0.4-0.3,0.7-0.5c0.1-0.1,0.3-0.2,0.4-0.2c0.4-0.1,0.6-0.3,0.8-0.6
			c0.3-0.7,0.6-0.8,1.3-0.8c0.9,0,1,0,1.3-0.8c0.2-0.6,0.5-0.8,1.1-0.8c0.8,0,1.1-0.3,1.2-1c0.1-1.1,0.8-1.8,1.5-2.6
			c0.1-0.2,0.4-0.2,0.6-0.3c0.4-0.2,0.8-0.3,1.1-0.5c0.3,0.6,0.4,1.3,1.1,1.2c0.2,0,0.4-0.1,0.5-0.2c0.4-0.8,0.8-1.6,1.2-2.3
			c0-0.1,0.1-0.2,0.1-0.3c0.2-0.2,1.7,0,1.9,0.2c0.1,0.1,0.2,0.1,0.3,0.2c0-0.1,0.1-0.3,0-0.4c-0.2-0.5,0.3-1.3,0.9-1.3
			c1.2,0.1,2.4,0.3,3.6,0.5c0.3,0.1,0.7,0.4,0.9,0.7c0.4,0.5,0.7,1,1.1,1.5c0.4,0.6,0.9,0.8,1.6,0.5c-0.4-0.7-0.4-1.6-1.4-1.9
			c0.1-0.1,0.1-0.2,0.1-0.2c0.6-0.6,1-1.3,1-2.3c0-0.3,0.2-0.5,0.5-0.6c1.2-0.3,1.5-0.2,2.2,0.9c0.1,0.1,0.1,0.2,0.2,0.2
			c0.6,0.4,2.2-0.3,2.2-1.1c0-0.1,0-0.2,0-0.4c0-0.3-0.1-0.7,0.4-0.8c0.5-0.1,0.9-0.2,1.2,0.3c0,0.1,0.1,0.1,0.1,0.2
			c0.7,1.2,0.9,1.2,2.3,1c0.3-0.1,0.7-0.1,1.1-0.1c0.9,0,1.3,0.3,1.5,1.1c0,0.2-0.2,0.5-0.4,0.7c-0.2,0.2-0.5,0.3-0.8,0.5
			c-0.3,0.1-0.5,0.3-0.8,0.4c0,0.6,0,1.2,0,1.9c0,0.3,0.2,0.6,0.5,0.8c0.6,0.4,1.1,0.9,1.6,1.4c0.1,0.1,0.2,0.3,0.4,0.5
			c0.2-0.8,0.4-1.6,0.6-2.5c-0.3,0-0.6,0-0.9,0c-0.7,0-0.9-0.3-0.9-0.9c0-0.7,0.1-1.3,0.9-1.5c0.1,0,0.3-0.2,0.4-0.3
			c0.5-0.4,0.6-0.4,1,0.2c0.1,0.2,0.3,0.3,0.5,0.3c0.6,0.1,1.3,0.1,1.9,0.2c0.5,1.7-0.9,1.9-1.8,2.4c0.2,0.9,0.5,1.8,0.7,2.8
			c0.4,0.2,0.7,0,1-0.4c0.2-0.3,0.4-0.7,0.8-0.6c0.3,0,0.6,0.1,0.7,0.3c0.3,0.4,0.6,0.4,1,0.3c0.5-0.1,0.9-0.3,1.4-0.5
			c0.1,0.3,0.3,0.6,0.3,1c0,0.2-0.2,0.5-0.4,0.7c-0.4,0.4-0.5,1.2,0,1.5c0.1,0.1,0.2,0.2,0.3,0.5c0.3-0.5,0.6-0.9,0.7-1.4
			c0.2-0.6,0.6-0.6,1-0.6s0.8,0.2,0.8,0.7s0,1-0.1,1.5c0,0.2-0.1,0.4-0.1,0.5c-0.2,0.4-0.1,0.7,0.4,0.7c0.4,0.1,0.6,0.3,0.7,0.7
			c0.2,0.6,0.5,1.2,0.7,1.8c0.1,0.4,0.1,0.9,0.1,1.3s-0.2,0.4-0.5,0.4c-0.4-0.1-0.8-0.1-1.3-0.2c0.3,1.1-0.2,2.2,0.7,3.1
			c0.4,0.4,0.2,1.2-0.2,1.5c-0.7,0.6-1.4,1.2-2.2,1.9c0.6,0.7,0.8,1.7,2,2c0.5,0.1,0.4,0.8,0.4,1.3c0,0.7-0.4,0.9-1,1
			c-0.1,0-0.3,0-0.3,0c-0.1,1-0.2,1.9-0.2,2.9c0,0.5,0.1,1.1,0.1,1.6c0.1,0.5,0.1,0.9-0.3,1.3c-0.6,0.5-0.7,1.8-0.3,2.4
			c0.2,0.2,0.5,0.4,0.8,0.5c0.4,0.1,0.5,0.3,0.5,0.7c0,0.5,0.1,1,0.1,1.5c0.1,0.8-0.4,1.5-1.2,1.6c-0.4,0-0.7-0.2-1.1-0.3
			c-0.2,0-0.4-0.2-0.5-0.1c-0.2,0.2-0.4,0.4-0.4,0.7c0,0.7,0,1.4,0.8,1.9c0.2,0.1,0.2,0.6,0.2,0.8c-0.2,0.8-0.4,1.5-0.7,2.3
			c-0.1,0.2-0.4,0.5-0.6,0.6c-0.4,0.2-0.7,0.4-0.7,0.9s-0.3,0.6-0.8,0.6c-0.1,0-0.2,0-0.3,0c-0.8-0.1-1.3,0.3-1.5,1.1
			c0.2,0.1,0.4,0.2,0.7,0.3c1,0.4,1,1.3,0.7,2c-0.1,0.2-0.4,0.3-0.7,0.3c-0.4,0.1-0.7,0.1-1.1,0.1s-0.8,0.2-1,0.6
			c-0.1,0.2-0.4,0.3-0.6,0.5c-0.3,0.2-0.7,0.4-1.1,0.6c-0.7,0.4-0.8,1-0.8,1.8c0.4,0,0.7-0.1,0.9-0.6c0.1-0.3,0.4-0.6,0.7-0.9
			c0.3,0.2,0.6,0.3,0.9,0.5c0.8,0.5,1,1.4,0.5,2.2c-0.3,0.5-0.5,1.1-0.4,1.7c0.1,0.8-0.2,1.2-0.9,1.5c-0.8,0.3-1.3,0.8-1.6,1.6
			c-0.1,0.3-0.5,0.6-0.8,0.8c-0.5,0.3-0.8,0.7-0.6,1.4c0.2,0.8-0.3,1.3-1,1.2c-0.1,0-0.3,0-0.4,0c-0.9-0.1-1.6,0-2,1
			c-0.1,0.2-0.5,0.4-0.7,0.3c-1.1-0.1-1.7,0.3-2,1.4c-0.2,0.9-0.6,1.1-1.3,1c-0.5-0.1-0.9-0.5-0.9-1c0-0.3,0-0.6-0.4-0.8
			c-0.4-0.1-0.7-0.1-0.9,0.2c-0.4,0.5-0.8,1-1.2,1.6c0,0-0.1,0-0.2,0c-1.3-0.2-1.3-0.2-1.6-1.5c0-0.2-0.2-0.4-0.4-0.5
			c-0.1,0-0.3,0.1-0.5,0.2c-0.4,0.2-0.7,0.4-1.1,0.6c-0.7,0.3-1.2,0.8-1.3,1.6c0,0.2-0.1,0.4-0.2,0.6c-0.2,0.5-0.5,0.8-1,0.7
			c-0.8-0.1-1.5,0-2.3,0.4c-0.6,0.3-1.1,0.3-1.7-0.2c-0.4-0.3-1.1-0.3-1.7-0.3c-1.1,0-2,0.7-2.9,1.2c-0.3,0.2-0.2,0.5,0.1,0.7
			c0.8,0.5,0.8,0.5,0.6,1.4c-0.2,0.7-0.9,1.1-1.7,0.9c-0.3-0.1-0.5-0.2-0.8-0.3c-0.4-0.1-0.8-0.1-1.2,0.2c-0.2,0.2-0.7,0.2-1,0.3
			c-0.1,0-0.2,0-0.3,0c-0.9-0.2-1.6-0.1-2.1,0.7c-0.3,0.5-0.8,0.6-1.3,0.4c-0.9-0.3-1.9-0.5-2.9-0.4c-0.4,0.1-0.7-0.2-0.8-0.6
			C65.1,151.1,65,150.5,64.8,149.9z"/>
		
			<path fill="#FF671B" stroke="#FFFFFF" stroke-width="6.6154" stroke-linecap="round" stroke-linejoin="round" stroke-miterlimit="10" d="
			M173,175.5c0,0.7-0.5,1.2-1.2,1.3c-0.6,0-1.2-0.7-1.2-1.4c0-0.4,0.9-1.2,1.4-1.2C172.4,174.2,173,174.9,173,175.5z"/>
		
			<path fill="#FF671B" stroke="#FFFFFF" stroke-width="6.6154" stroke-linecap="round" stroke-linejoin="round" stroke-miterlimit="10" d="
			M176.6,192c0.5,0,0.8,0.5,0.8,1.4c0,0.6-0.2,0.8-0.8,0.8c-0.7,0-1.4-0.5-1.4-1C175.3,192.8,176.1,192,176.6,192z"/>
		
			<path fill="#FF671B" stroke="#FFFFFF" stroke-width="6.6154" stroke-linecap="round" stroke-linejoin="round" stroke-miterlimit="10" d="
			M174.6,211.4c-0.5-0.1-0.8-0.3-1.2-0.4c-0.1,0-0.2-0.1-0.2-0.1c0-0.4,0-0.9,0.1-1.3c0.2-0.3,0.9-0.3,1.2,0
			c0.3,0.2,0.4,0.4,0.3,0.8C174.7,210.7,174.7,211.1,174.6,211.4z"/>
		
			<path fill="#FF671B" stroke="#FFFFFF" stroke-width="6.6154" stroke-linecap="round" stroke-linejoin="round" stroke-miterlimit="10" d="
			M64.7,217.4c0.5,0.2,0.8,0.3,0.5,0.9c-0.1,0.2,0.1,0.7,0.2,1.1c-0.5,0.2-0.7-0.1-0.9-0.5C64,218.3,64.5,217.9,64.7,217.4z"/>
		
			<path fill="#FF671B" stroke="#FFFFFF" stroke-width="6.6154" stroke-linecap="round" stroke-linejoin="round" stroke-miterlimit="10" d="
			M62.4,217.2c0.3,0.2,0.4,0.2,0.5,0.4c0.1,0.1,0.2,0.3,0.2,0.5c0,0-0.1,0.1-0.2,0.1c-0.2-0.1-0.4-0.2-0.5-0.3
			C62.4,217.7,62.5,217.5,62.4,217.2z"/>
	</g>
	<g>
		
			<path fill="#FF671B" stroke="#FFFFFF" stroke-width="6.6154" stroke-linecap="round" stroke-linejoin="round" stroke-miterlimit="10" d="
			M202.3,243.9c0,2.9-2.3,5.2-5.3,5.2c-2.9,0-5.3-2.3-5.3-5.2c0-2.8,2.3-5.1,5.3-5.1C200.1,238.8,202.3,241.1,202.3,243.9z
			 M193.1,243.9c0,2.3,1.7,4.1,4,4.1s3.9-1.8,3.9-4.1s-1.7-4.1-3.9-4.1S193.1,241.7,193.1,243.9z M196.3,246.6h-1.2v-5.1
			c0.5-0.1,1.1-0.2,2-0.2c1,0,1.4,0.2,1.8,0.4c0.3,0.2,0.5,0.6,0.5,1.1c0,0.6-0.4,1-1.1,1.2v0.1c0.5,0.2,0.8,0.6,0.9,1.3
			c0.2,0.8,0.3,1.1,0.4,1.3h-1.3c-0.2-0.2-0.3-0.7-0.4-1.3c-0.1-0.6-0.4-0.8-1.1-0.8h-0.6v2H196.3z M196.3,243.7h0.6
			c0.7,0,1.2-0.2,1.2-0.8c0-0.5-0.3-0.8-1.1-0.8c-0.3,0-0.5,0-0.7,0.1V243.7z"/>
	</g>
</g>
<g>
	<g>
		<path fill="#FF671B" d="M77.7,160.8c-0.2,0-0.3,0.1-0.5,0.1c-0.3,0.1-0.6,0.3-0.8-0.1c-0.2-0.4,0.1-0.6,0.2-0.8
			c0-0.1,0.1-0.2,0.1-0.3c0-0.7,0.5-1,1.1-1.2c0.5-0.2,1-0.3,1.5-0.4c1.4-0.2,2.4-0.9,3.1-2.1c0.3-0.5,1.3-0.5,1.5,0
			c0.1,0.1,0.1,0.2,0.1,0.3c-0.1,0.5,0.2,0.6,0.6,0.8c0.4,0.1,0.7,0,0.9-0.4c0.1-0.2,0.4-0.3,0.6-0.4c0.3-0.1,0.7-0.2,0.7-0.7
			c0-0.1,0.2-0.3,0.3-0.3c0.8-0.2,1.6-0.5,2.3-0.7c0.6-0.2,1,0,1.3,0.5c0.1,0.2,0.5,0.2,0.7,0.2c0.3-0.1,0.6-0.2,0.6-0.7
			c-0.1-0.4-0.4-0.6-0.9-0.4c-0.6,0.2-0.6,0.2-0.8-0.4c0-0.1,0-0.2-0.1-0.3c-0.5-1-0.1-1.7,0.6-2.4c0.1-0.1,0.3-0.2,0.5-0.2
			c0.8,0.1,1.5,0.2,2.3,0.4c0.2,0,0.4,0.2,0.5,0.4c0.1,0.1,0.2,0.3,0.4,0.6c0.2-0.1,0.4-0.2,0.5-0.4c0.4-0.5,0.9-0.3,1.4-0.1
			c0.2,0.1,0.4,0.4,0.4,0.7c0.1,0.3,0,0.7,0,1.2c0.3-0.4,0.5-0.7,0.7-1c0.3-0.5,0.6-0.5,1.1-0.3c0.5,0.3,1.1,0.4,1.7,0.6
			c1,0.2,1.8,0.1,2.3-0.9c0.2-0.5,0.7-0.4,1.1-0.3c0.7,0.1,0.9-0.2,0.8-0.9c-0.1-0.5,0.1-0.9,0.4-1c0.5-0.1,1.1,0.3,1.2,0.7
			s0.2,0.8,0.3,1.2c0.1,0.2,0.3,0.4,0.4,0.4c0.3,0.1,0.5,0,0.8-0.3c0.9-1.3,1.7-2.7,1.9-4.5c1,0.1,2,0.1,3.1,0.2
			c0.2,0,0.4,0.4,0.6,0.6c0.2,0.2,0.3,0.6,0.6,0.4c0.3-0.1,0.8-0.2,0.7-0.8c0-0.2,0-0.4,0-0.5c0-0.9,0.2-1.1,1.1-1.3
			c0.4-0.1,0.6-0.2,0.5-0.7c-0.1-0.3-0.2-0.7-0.2-1.1c-0.1-0.3,0.2-0.7,0.5-0.7s0.7,0.1,1,0.1c0.5,0,0.8,0.2,0.7,0.7
			c0,0.2-0.1,0.4-0.2,0.6c-0.3,0.3-0.6,0.5-0.9,0.8c0.7,0.3,0.8,0.2,1.1-0.5c0.5,0.1,1,0.1,1.5,0.2c0.4,0.1,0.8-0.1,1.1-0.3
			c0.4-0.3,0.8-0.7,1.2-1c0.5-0.3,0.9-0.3,1.3,0.1c0.8,0.8,1.8,0.6,2.4-0.3c-0.1-0.1-0.2-0.2-0.3-0.3c-0.1-0.1-0.2-0.3-0.3-0.4
			c-0.1-0.8,0.7-1.1,1-1.6c0.1-0.1,0.7,0.1,1,0.1c0.1,0,0.1,0.2,0.2,0.3c0.1,0.2,0.1,0.3,0.2,0.5c0.5,1.2,1,1.3,2.1,0.7
			c0.4-0.2,0.8-0.4,1.2-0.6c0.6-0.2,1.3-0.2,1.7,0.4c0.2,0.3,0.5,0.5,0.7,0.8c1.4-0.8,2.3-1.9,2.2-3.6c0-0.1,0-0.2,0-0.4
			c0.1-1,0.4-1.4,1.4-1.6c0.7-0.1,1.4-0.1,2.1-0.1c0.5,0,0.8,0.3,1,0.7c0.4,0.7,0.9,0.8,1.5,0.2c0.6-0.5,1.3-1.1,2.2-1
			c0.4,0,0.7,0.2,1,0.4s0.6,0.3,0.9,0.2c0.6-0.3,1.1,0.1,1.2,0.7c0.1,0.5,0.1,1,0,1.5c-0.1,0.4,0.1,0.6,0.3,0.8c0.2,0.1,0.5,0,0.7,0
			c0.1,0,0.2-0.1,0.3-0.1c0.8,0.1,1-0.4,1-1.1c0-0.1,0.2-0.3,0.3-0.4c0.4-0.2,0.4-0.4,0.4-0.8c0-0.6,0.1-1.1,0-1.7
			c-0.1-0.6,0.3-0.8,0.8-1c0.4-0.2,0.9-0.2,1.1,0.3c0.3,0.6,0.6,1.2,0.9,1.8c0.1,0.3,0.1,0.6,0.7,0.7c0.5,0,0.7-0.2,0.8-0.6
			c0.1-0.3,0.9-0.7,1.3-0.7c0.4,0.1,0.6,0.4,0.7,0.8c0.2,1,0.2,1-0.8,1.6c-0.7,0.4-0.6,0.3-0.1,0.9c0.4,0.4,0.7,0.7,1.3,0.7
			c0.1-0.3,0.2-0.6,0.3-1c0.2-0.6,1.1-1.1,1.7-0.9c0.3,0.1,0.5,0.9,0.3,1.3c-0.3,0.4-0.7,0.7-1,1c-0.1,0.1-0.2,0.3-0.2,0.5
			c0.3,1.2,0.6,2.4,0.9,3.6c0,0.1,0,0.1,0.1,0.2c0.3,0,0.7,0,1-0.1c0.1,0,0.3-0.3,0.3-0.4c0-0.4,0.1-0.9-0.4-1.2
			c-0.4-0.3,0-0.6,0.1-0.9c0-0.1,0.3-0.3,0.4-0.3c1.2,0,2.2,0.4,2.9,1.4c0.1,0.2,0.3,0.4,0.5,0.4c0.4,0,0.8-0.1,1.2-0.3
			c0.1,0,0.1-0.2,0.1-0.4c0-0.4,0-0.8-0.1-1.2c0.6,0,1.1,0,1.7,0c0.1,0,0.4,0.3,0.4,0.5c-0.1,0.5-0.2,1-0.8,1.2
			c-0.1,0-0.3,0.3-0.3,0.4c0,0.5,0.1,1.1,0.1,1.6c0.1,0.8-0.1,1.5-0.8,1.9c0.5,0.8,1.3,0.9,2,0.4c0.3-0.2,0.5-0.3,0.8-0.5
			c-0.1-0.6-0.3-1.1-0.4-1.7c0-0.1,0-0.3,0-0.4c0-0.7,0.2-1,0.7-1.1c0.7-0.1,1.3,0.2,1.5,0.8c0.1,0.4,0.2,0.9,0.4,1.3
			c0.2,0.4,0.5,0.7,1,0.8c0.4,0,0.6,0.3,0.5,0.6c-0.1,0.7,0.2,1.1,0.8,1.4c0.5,0.2,0.8,0.7,1.2,1s0.4,0.8,0.3,1.2
			c-0.2,0.5-0.7,0.7-1.3,0.7c-0.5-0.1-0.9-0.2-1.4-0.2c-0.6,0-0.9,0.2-1.1,0.9c-0.1,0.3-0.2,0.6-0.3,1c0.6,0,1.1-0.1,1.5,0
			s0.6,0.6,0.9,0.9c-0.1,0.1-0.1,0.2-0.2,0.2c-0.8,0.8-0.8,0.8-0.2,1.7c0.3,0.4,0.2,1.1-0.3,1.5c-0.4,0.3-0.5,0.6-0.1,1
			c0.1,0.1,0.2,0.2,0.1,0.3c-0.2,0.5-0.3,1-0.7,1.5c-0.1,0.2-0.7,0.1-1,0.1c-0.1,0-0.3-0.3-0.3-0.4c0-0.7,0.1-1.3,0.1-2
			c0-0.6-0.4-0.8-0.8-0.6c-0.1,0.1-0.3,0.2-0.3,0.4c-0.1,0.7-0.1,1.4-0.1,2.1c-0.1,0.8,0.1,1.4,0.8,1.9c0.4,0.3,0.5,0.8,0.3,1.2
			c-0.3,0.4-0.7,0.7-1.1,1c-0.1,0.1-0.3,0.1-0.4,0.2c-0.5,0.1-0.6,0.4-0.4,0.9c0.5-0.2,0.9-0.4,1.3-0.5c0.6-0.2,1,0,1.3,0.5
			s0.4,1,0.6,1.5c0,0.1,0,0.3,0,0.3c-0.7,0.7-1.8,1-2.4-0.1c-0.1-0.1-0.3-0.3-0.4-0.2c-0.2,0.1-0.3,0.3-0.4,0.4c0,0,0,0.1,0,0.2
			c0.1,0.6,0.1,1.1-0.7,1.3c0.2,0.3,0.3,0.5,0.5,0.8c0.3-0.2,0.6-0.4,0.9-0.5c0.5-0.2,1-0.5,1.6-0.6s0.9,0.2,1,0.8
			c0,0.4,0.1,0.8,0,1.1s-0.3,0.7-0.5,0.7c-0.3,0.1-0.8,0-1-0.1c-0.5-0.3-0.8-0.3-1.3,0.1c0.2,0.1,0.4,0.2,0.6,0.3
			c0.4,0.3,0.9,0.6,1.2,0.9c0.4,0.5,0.4,1-0.1,1.4c-0.6,0.5-0.5,1.1-0.4,1.8c0,0.1,0.2,0.3,0.3,0.3c0.4,0.2,0.8,0.4,1.1,0.7
			c0.3,0.2,0.4,0.6,0.6,0.9c0.2,0.2,0.3,0.5,0.5,0.7c0.8,0.7,0.9,0.8,0.4,1.7c-0.3,0.5-0.2,0.7,0.3,0.9c0.8,0.3,0.6,1,0.6,1.5
			c0,0.2-0.4,0.5-0.6,0.7c-0.3,0.2-1.2-0.1-1.4-0.4c-0.4-0.6-0.8-0.7-1.4-0.5c-0.6,0.3-1.1,0.6-1.7,0.9c-0.1,0.1-0.1,0.3-0.1,0.4
			c0.1,0.3,0.2,0.6,0.2,0.9c0.3,1.3,0.9,2.3,2.4,2.4c-0.5,0.7-0.9,1.5-1.7,1.9c-0.4,0.2-0.2,0.6-0.1,0.9c0.1,0.3,0.3,0.6,0.4,0.9
			c0.1,0.2,0.2,0.3,0.3,0.5c0.1-0.1,0.2-0.2,0.3-0.4c0.1-0.1,0.3-0.3,0.5-0.4c0.5-0.2,0.6-0.5,0.6-1c-0.1-0.3,0-0.7,0-1
			c0.1-0.6,0.5-0.9,1-0.9c1.1,0,1.9,0.5,2.3,1.5c0.2,0.6,0.5,1.2,0.6,1.8c0.1,0.3-0.1,0.6-0.2,0.9c-0.2,0.4-0.2,0.7,0.2,0.9
			c0.4,0.3,0.9,0.6,0.9,1.2c0,0.4-0.1,0.7-0.5,0.9c-0.6,0.3-0.7,0.7-0.6,1.3c0,0.2,0,0.5,0.1,0.7c0.1,0.8-0.1,1.1-0.8,1.4
			c-0.3,0.1-0.6,0.2-0.8-0.3s-0.6-0.4-1.1-0.4c0.1,0.3,0.1,0.5,0.2,0.7c0.2,0.6,0,1.2-0.5,1.7c-0.1,0.1-0.2,0.3-0.1,0.4
			c0.5,1.1,0.2,1.8-0.8,2.5c-0.3,0.2-0.4,0.7-0.5,1.1c-0.1,0.5-0.1,1.1-0.1,1.8c1-0.4,2-0.5,2.3-1.6c0.3-1,0.7-2.1-0.3-3.1
			c0.3-0.3,0.6-0.7,1-1.1c0.3-0.2,1.2,0.2,1.2,0.6c0.1,0.7,0.1,1.4,0.1,2.2c0.5,0,1.2-0.1,1.9-0.2c0.4,0,0.6,0,0.7,0.4
			c0.2,0.5,0.4,1,0.5,1.5c0.2,0.9-0.4,1.7-1.4,1.8c-0.4,0-0.7-0.1-0.9-0.4c-0.1-0.2-0.2-0.4-0.3-0.6c-0.4-0.6-1.3-1-1.9-0.6
			c-0.2,0.1-0.3,0.5-0.3,0.8s0.1,0.5,0.2,0.8c0.2,0.7,0.2,1.3-0.1,1.9c-0.2,0.4-0.3,0.8-0.5,1.2c-0.2,0.5,0,0.9,0.2,1.2
			s0.8,0.4,1,0.1c0.3-0.4,0.8-0.5,1.3-0.5c0.9,0,1.1-0.1,1.4-1c0.3-0.8,0.5-1.7,0.7-2.6c0.1-0.3,0.2-0.5,0.5-0.4c0.1,0,0.2,0,0.3,0
			c0.9-0.2,1.4,0.2,1.5,1c0,0.4-0.2,0.8-0.2,1.3c0,0.4-0.1,0.7,0,1.1c0.1,0.8,0.8,1.2,1.5,0.8c0.3-0.2,0.6-0.4,0.9-0.5
			c0.4-0.1,0.8-0.2,1.2-0.1c0.5,0.1,0.7,0.5,0.6,1c-0.3,0.8-0.6,1.7-0.9,2.5c-0.1,0.4-0.2,0.8-0.1,1.2c0.1,0.4,0,0.7-0.3,1
			c-0.1,0.2-0.3,0.3-0.5,0.5c-0.7,0.7-0.6,1.1-0.1,1.9c0.3,0.5,0.4,1.1,0.6,1.7c0.1,0.2,0.1,0.4,0.2,0.7c0.4-0.5,0.8-0.9,1.2-1.3
			c0.3-0.3,0.7-0.6,1.1-0.7c0.8-0.3,1.4,0.3,1.1,1c-0.3,1-0.7,2-1.1,3c-0.3,0.8-0.3,0.8,0.4,1.2c0.5,0.2,0.9,0.5,0.7,1.1
			c-0.1,0.2-0.2,0.5-0.4,0.6c-0.5,0.5-0.8,1-0.7,1.7c0,0.3-0.1,0.6-0.2,0.8c-0.2,0.5-0.3,0.9,0.1,1.3c0.3,0.3,0.5,0.5,0.2,0.9
			c-0.2,0.4-0.8,0.6-1.4,0.3c-0.2-0.1-0.4-0.2-0.6-0.3c-0.2-0.2-0.5-0.3-0.7,0c-0.2,0.2-0.4,0.2-0.2,0.6c0.2,0.3,0.2,0.7,0.7,0.6
			c0.5-0.1,0.9,0,1.1,0.5c0.2,0.6,0.1,1.3-0.4,1.6c-0.4,0.3-0.6,0.7-0.5,1.2c0,0.7-0.2,1.1-0.9,1.2c-0.4,0.1-0.8,0.3-1.2,0.5
			c-1.2,0.6-2.3,0.6-3.5,0c-0.1,0-0.2-0.1-0.3-0.1c0,0-0.1,0-0.2,0c0,0.2,0,0.4,0,0.6c0.1,0,0.2,0,0.3,0c0.4,0.1,0.6,0.4,0.6,0.8
			c-0.1,0.4-0.1,0.7-0.2,1.1c-0.1,0.2-0.2,0.5-0.4,0.7c-0.7,0.6-0.7,1.1-0.1,1.8c0.1,0.1,0.2,0.2,0.3,0.3c-0.2,0.3-0.3,0.6-0.5,0.8
			c-0.4,0.4-0.9,0.9-1.4,1.1c-0.6,0.3-1.1,0-1.4-0.5c-0.5-0.9-0.6-0.9-1.6-0.6c-0.2,0.9-0.1,1.2,0.7,1.4c1.1,0.3,1.3,0.9,1.1,1.9
			c0,0.3-0.1,0.6-0.4,0.7c-0.5,0.2-1,0.4-1.5,0.5c-0.6,0.1-1-0.2-1.2-0.8s-0.7-0.8-1.3-0.5c-0.3,0.2-0.5,0.5-0.4,0.8
			c0.1,0.4,0.2,0.7,0.2,1.1c0,0.6-0.3,1-0.9,1.1c-0.8,0.1-1.5,0.2-2-0.6c-0.3-0.5-0.9-0.4-1.3,0c-0.4,0.5-0.8,0.9-1.6,0.9
			c-0.3,0-0.7,0.5-1,0.8c-0.4,0.4-0.9,0.7-1.5,0.7c-0.5,0-0.7-0.5-1-0.8c-0.2-0.2-0.4-0.4-0.7-0.5c-0.4-0.1-0.7,0.1-0.7,0.6
			c0,0.7-0.1,1.4-0.1,2.1c0,0.3-0.1,0.5-0.3,0.6c-0.3,0.1-0.7,0.3-1,0.4c-0.7,0.2-1.5-0.3-1.6-1c0-0.8-0.5-0.9-1.1-1
			c-0.3,0.4-0.5,0.8-0.8,1.2c-0.5,0.7-0.9,0.8-1.7,0.5c-0.3-0.1-0.7-0.3-1-0.5c-0.4-0.3-0.5-0.9-0.1-1.3c0.4-0.4,0.9-0.8,1.3-1.2
			c0.1-0.1,0.1-0.4,0.1-0.5c-0.1-0.3-0.3-0.6-0.4-0.9c-0.1-0.2,0-0.5,0.1-0.6c0.5-0.4,0.1-0.7,0-1.1c0-0.1-0.4-0.2-0.5-0.2
			s-0.1,0-0.2,0c-0.2-0.7,0-1.1,0.6-1.3c0.8-0.2,1.3-0.7,1.3-1.6c0-0.4,0.2-0.4,0.5-0.4c0.5,0,1,0,1.5,0.1c0.2,0,0.5,0.2,0.6,0.3
			c0.3,0.4,0.7,0.8,0.8,1.2c0.2,0.6,0.6,0.5,1,0.4c0.2,0,0.4-0.2,0.6-0.1c0.5,0.1,0.8-0.1,0.9-0.3c-0.2-0.7-0.4-1.3-0.6-1.8
			c0-0.1,0.1-0.4,0.2-0.4c0.4-0.2,0.4-0.5,0.4-0.9s0-0.9,0-1.4c-0.6,0-1,0-1.5,0c-0.1,0-0.3,0.3-0.4,0.5c-0.1,0.3-0.1,0.7-0.1,1
			c0,0.1-0.1,0.4-0.3,0.4s-0.4,0-0.5-0.1s-0.2-0.3-0.3-0.4c-0.2-0.4-0.4-0.6-0.9-0.5c-0.2,0-0.4-0.1-0.5-0.2
			c-0.4-0.5-0.8-0.5-1.3-0.4c-0.8,0.3-1.6,0.6-2.4,0.9c-0.6,0.2-0.9,0.7-0.9,1.3s-0.3,0.9-0.8,1.2c-0.2,0.1-0.4,0.3-0.6,0.5
			c-0.6,0.5-0.7,0.9-0.3,1.5c0.1,0.1,0.2,0.2,0.3,0.2c0.9,0.2,0.9,0.2,0.7,1.1c0,0.2-0.1,0.4-0.2,0.5c-0.3,0.2-0.6,0.3-0.8,0
			c-0.1-0.2-0.3-0.4-0.5-0.4c-0.4,0-0.9-0.1-1.2,0.1c-0.4,0.2-0.2,0.7-0.1,1.1c0.1,0.3,0.3,0.6,0.5,1c0.3,0.6,0.2,1.3-0.3,1.7
			c-0.2,0.2-0.6,0.2-0.9,0.2c-0.8-0.2-1.4-0.2-2.1,0.3c-0.8,0.5-1.7,0.4-2.5,0.3c-0.7-0.1-1.4,0-2,0.2c-0.2,0.1-0.5,0-0.6-0.1
			c-0.8-0.8-1.8-0.9-2.9-0.7c-0.7,0.2-1.4,0.3-2.1,0.4c-0.6,0.1-1-0.2-1.2-0.7c0-0.1-0.1-0.2-0.1-0.3c-0.4-0.8-0.4-0.8-1.3-0.6
			c0,0.7,0.1,1.4,0.1,2.1c0,0.4-0.4,0.8-0.8,0.8c-0.5,0-0.9-0.2-1.3-0.5c-1.2-0.9-2.2-0.9-3.3,0.2c-0.6,0.6-1.5,0.6-2.1,0
			c-0.5-0.5-1.1-1-1.5-1.6c-0.1-0.1-0.2-0.4-0.2-0.6c0.1-0.6-0.2-0.7-0.7-0.8c-1.1-0.2-2.2-0.5-3.3-0.8c-0.3-0.1-0.6-0.2-0.9-0.4
			c-0.8-0.4-0.9-0.6-0.7-1.4c0.1-0.5,0-0.7-0.5-0.7c-0.6,0-1.2-0.1-1.7-0.2c-0.5-0.1-0.9-0.2-1.1-0.7c-0.3-0.6-0.8-0.5-1.2,0
			c-0.1,0.1-0.3,0.1-0.5,0.2h-0.1c-0.8,0-1.3-0.4-1.3-1.2c0-0.2-0.1-0.3-0.2-0.5c-0.7-0.1-1.3,0-1.6,0.8c-0.2,0.5-0.6,0.5-1,0.4
			c-0.6-0.1-1.2-0.1-1.8,0c-0.6,0.1-1.2,0.3-1.8,0.4c-0.5-0.9-0.9-1.7-1.4-2.6c-0.3-0.5-0.7-0.9-1.4-0.9c-0.2,0-0.5-0.2-0.7-0.4
			c-0.7-1-1.6-1.1-2.7-0.7c-0.1,0-0.2,0.1-0.4,0.1h-0.1V242c0.5-0.7,0.3-1.3-0.3-1.7c-0.4-0.3-0.5-0.8-0.4-1.3
			c0-0.3-0.1-0.6-0.3-0.8c-0.3-0.3-0.8-0.4-0.9-0.7s0.1-0.7,0.1-1.3c-0.4,0.2-0.8,0.4-1.1,0.6c-0.5,0.5-0.9,0.5-1.5,0.2
			c-0.9-0.6-1.9-0.7-3-0.6c-0.9,0.1-0.9,0.1-1.2-0.8c-0.1-0.3-0.1-0.6-0.3-0.8c-0.1-0.2-0.3-0.4-0.5-0.4c-0.9-0.1-1.3-0.6-1.3-1.4
			c0-0.5,0-1,0-1.6c-1,0.4-2,0.8-3,0.4c-0.9-0.4-1.8-1-2.8-1.7c-0.2,0.2-0.4,0.6-0.7,0.9c-0.2,0.2-0.4,0.4-0.7,0.5
			c-0.5,0.2-1,0-1.2-0.5c-0.1-0.4-0.2-0.9-0.3-1.3c0-0.1,0-0.2-0.1-0.3c-0.4-0.5-0.4-1-0.2-1.6c0.1-0.2-0.1-0.6-0.3-0.7
			c-1.3-0.5-1.9-1.7-2.6-2.7c-0.1-0.1-0.1-0.2-0.2-0.3c-1,0.7-2.2,1.2-2.8,2.3c-0.3,0.6-0.8,0.6-1.4,0.6c-0.2-0.8-0.2-0.9,0.4-1.3
			c0.2-0.1,0.3-0.4,0.3-0.6c0-0.6,0.3-0.9,0.8-1.1c0.5-0.2,1-0.3,1.6-0.5c-0.4-0.5-0.7-1.1-1.1-1.6c-0.2-0.3-0.8-0.3-1.1,0
			c-0.1,0.1-0.2,0.1-0.3,0.1c-1,0.1-1.9,0.2-2.9,0.3c0.2-0.8-0.2-1.5-0.6-2.2c-0.2-0.4,0.1-0.5,0.3-0.7c0.5-0.5,1-0.4,1.4,0.1
			c0.2,0.2,0.3,0.6,0.7,0.3c0.4-0.2,0.4-0.6,0.2-0.9c-0.4-0.5-0.7-1.1-1.5-1.2c-0.4,0-0.6,0.1-0.7,0.5c-0.1,0.2-0.2,0.5-0.5,0.3
			c-0.3-0.1-0.2-0.4-0.1-0.6c0.6-1,0.5-1.8-0.4-2.6c-0.5-0.5-1.2-0.8-1.8-1.2c-0.2-0.1-0.4-0.3-0.3-0.6c0.1-0.3,0-0.7-0.1-1
			c-0.2-0.5-0.5-0.9-0.7-1.4c-0.3-0.6-0.8-0.9-1.5-0.8c-0.4,0.1-0.7,0-0.7-0.5c0-0.1-0.1-0.2-0.2-0.2c-0.6,0-0.8-0.5-1.2-0.8
			c-0.3-0.3-0.7-0.6-1-0.9c-0.2-0.2-0.3-0.5-0.3-0.8c0-0.9,0-1.9,0-2.8c0-0.8-0.2-1.5-0.4-2.2c-0.1-0.3-0.4-0.6-0.7-0.8
			c-0.8-0.6-0.9-0.9-0.5-1.8c0.1-0.2,0.2-0.4,0.2-0.6c0.2-0.9,0-1.7-1-1.9c-0.6-0.1-1-0.5-1.1-1.1c-0.1-0.7-0.5-1.1-1.1-1.4
			c-0.6-0.3-1.2-0.6-1.9-0.9c-0.4-0.2-0.2-0.5-0.1-0.7c0-0.1,0.3-0.2,0.4-0.2c0.1,0,0.2,0.2,0.3,0.3c0.2,0.1,0.4,0.4,0.6,0.4
			c0.2-0.1,0.4-0.4,0.5-0.6c0.2-0.6,0.1-1.1-0.4-1.6c-0.2-0.1-0.2-0.6-0.1-0.9c0.2-0.6,0.4-1.1,0.6-1.7c0.2-0.4,1.4-0.5,1.7-0.1
			c0.1,0.1,0.2,0.3,0.4,0.5c0.7-0.6,0.6-1.3,0.5-1.9c0-0.3-1-1.1-1.3-1.1c-0.2,0-0.3,0.2-0.4,0.3c-0.3,0.4-0.6,0.5-1.1,0.5
			c-0.5-0.1-0.7-0.3-0.9-0.8c-0.1-0.6-0.1-1.1,0.4-1.5c0.9-0.8,1.7-1.6,2.6-2.4c0.5-0.5,0.6-1,0-1.4c-0.5-0.4-1.1-0.7-1.7-0.9
			c-0.4-0.1-0.5-0.3-0.5-0.7c-0.1-1.2-0.2-2.4-0.3-3.7c0-1.1,0.3-1.5,1.4-1.5c0.5,0,0.8-0.1,0.8-0.7c0.1-1.1,0.8-1.6,2-1.6
			c0.7,0,1.1-0.2,1.3-0.8s0.8-0.9,1.4-1c0.3-0.1,0.5-0.3,0.7-0.4c0-0.1,0-0.2-0.1-0.2c-0.3,0-0.5,0-0.8,0c-0.7,0-1.2-0.4-1.1-1.1
			c0.1-0.8,0.4-1.6,0.6-2.4c0.1-0.4,0.4-0.5,0.7-0.5c0.2,0,0.4,0,0.6,0c0.6,0,0.9-0.2,1.1-0.7c0.4-1,1.3-1.6,2.4-1.8
			c0.4-0.1,0.8-0.1,1.2-0.1c0.2,0,0.6,0,0.6,0.1c0.1,0.4,0.2,0.8,0.1,1.2c-0.2,0.6-0.8,0.9-1.4,0.9s-1,0.2-1.2,1
			c0.4,0.1,0.7,0.3,1.1,0.4c0.3,0.1,0.5,0,0.6-0.4c0.1-0.2,0.4-0.5,0.7-0.5c0.8-0.1,1.3-0.4,1.3-1.4c0-0.4,0.2-0.6,0.6-0.7
			c0.4-0.1,0.8-0.2,1.3-0.2c0.5-0.1,0.8,0.3,0.7,0.7c0,0.4-0.1,0.7-0.1,1.2c0.4,0,0.8,0,1.2-0.1c0.6-0.2,0.8-0.6,0.6-1.3
			c-0.2-0.7-0.2-1.2,0.4-1.8c0.3-0.3,0.5-0.7,0.6-1.2c0.2-0.5,0.5-0.8,1-0.6c0.2,0.1,0.3,0.1,0.5,0.1c0.4,0,0.5,0.2,0.4,0.6
			c0,0.1,0,0.3-0.1,0.4c0,0.7,0,0.8,0.8,0.8c0.4,0,0.5,0.2,0.5,0.5c0.1,0.6,0.3,0.7,0.9,0.4c0.2-0.1,0.3-0.1,0.5-0.2
			C77.8,161.6,77.8,161.5,77.7,160.8z"/>
		<path fill="#FF671B" d="M201.1,221.7c-0.9-0.2-1.7-0.3-2.6-0.5c-0.5-0.1-0.5-0.5-0.3-0.9s0.4-0.8,0.5-1.2c0-0.2-0.1-0.4-0.2-0.6
			c-0.2-0.3-0.4-0.6-0.6-0.9l0.1-0.1c-0.2,0-0.3,0-0.5,0c-0.4,0-0.5,0.2-0.5,0.6c0.1,0.7-0.1,0.9-0.7,1.2c-0.6,0.2-1.1,0.4-1.7,0.1
			c0.1-1.1,0.3-2.2,0.4-3.4c-0.4,0.2-0.6,0.3-0.9,0.4c-1.2,0.6-1.7,0.4-2.3-0.9c-0.1-0.2-0.3-0.3-0.6-0.4c-0.5-0.2-0.9-0.5-1.4-0.7
			c-0.3-0.1-0.4-0.4-0.3-0.7c0-0.3,0.1-0.6,0.1-0.9c0-0.1-0.1-0.4-0.2-0.4c-0.8-0.4-0.7-1.1-0.6-1.7c0-0.4,0.2-0.8,0.1-1.1
			c-0.1-0.2-0.6-0.2-1-0.3c-0.8-0.3-0.9-0.4-0.7-1.3c0.2-0.8,0.1-1-0.6-1.3c-0.4-0.2-0.6-0.8-0.3-1.3c0.1-0.2,0.3-0.4,0.4-0.6
			c0.4-0.4,0.4-0.9,0.3-1.4c-0.6,0-1.1,0-1.7,0c-0.6,0-0.7-0.3-0.8-0.7c-0.1-0.7-0.1-1.4-0.2-2.1c-0.1-0.8,0.1-1.1,0.8-1.4
			c0.5-0.2,0.5-0.6,0.6-1c-0.1-0.1-0.3-0.1-0.4-0.1c-0.6,0.1-0.7-0.4-0.9-0.8c-0.3-1-0.7-2-1-3c-0.2-0.4-0.5-0.7-0.9-0.9
			c-0.2-0.1-0.5-0.3-0.6-0.5c-0.1-0.8-0.7-1.2-1.3-1.6c-0.6-0.4-0.7-1.3-0.4-1.9c0.3-0.5,0.6-0.9,0.5-1.5c0-0.1,0.3-0.4,0.4-0.5
			c1-0.6,1.1-0.9,0.5-2c-0.2-0.4-0.5-0.8-0.8-1.1c-0.5-0.8-0.2-1.5-0.1-2.3c0.1-0.3,1.2-0.4,1.5-0.1c0.3,0.2,0.6,0.4,1,0.7
			c-0.1-0.9-0.2-1.6-0.3-2.3c0-0.3-0.1-0.6,0-0.8c0.2-0.5,0-0.7-0.4-1c-0.6-0.5-0.6-1.7-0.1-2.2c0.4-0.4,1.3-0.4,1.6,0.1
			c0.2,0.3,0.4,0.6,0.6,0.8c0.3,0.4,0.8,0.4,0.9-0.2c0.1-0.3,0-0.7,0-1c-0.1-0.4-0.2-0.8-0.3-1.2c-0.1-0.6,0.2-1,0.6-1.3
			c0.1-0.1,0.3-0.1,0.5-0.1c0.6,0.1,0.8-0.1,0.8-0.7c0-0.1-0.2-0.3-0.3-0.4c-0.5-0.2-1-0.4-1.5-0.6c0-0.7,0.4-1.1,0.9-1.4
			c0.7-0.3,1,0.4,1.6,0.4c0-0.1,0.1-0.3,0.1-0.5c0.2-0.6,0.3-1.2,0.5-1.7c0.3-0.8,0.8-1.3,1.7-1.4c0.2,0,0.3,0,0.5-0.1
			c0.7-0.2,1-0.5,1-1.2c0-0.6,0-1.1,0.5-1.5c0.5-0.3,1.1-0.2,1.5,0.2c0.2,0.2,0.6,0.5,1,0.5c1,0,1.4,0.6,1.8,1.3
			c0.2,0.3,0.3,0.6,0.4,1c0.2,0.4,0.4,0.4,0.7,0.2c0.7-0.5,0.6-1.2,0.8-1.9c0-0.1-0.1-0.2-0.2-0.3c-0.2-0.1-0.3-0.2-0.5-0.3
			c-0.8-0.4-0.9-0.5-0.6-1.5c0.2,0,0.4,0,0.7,0c0.4,0.1,0.6-0.1,0.6-0.5c0.1-0.8,0.2-1.5,0.3-2.3c0-0.3,0.2-0.4,0.5-0.4
			s0.7-0.1,0.9,0c0.7,0.4,0.7,1.2,0.1,1.7c-0.2,0.2-0.2,0.6-0.3,1c0.3,0,0.4,0,0.5-0.1c0.4-0.1,0.9-0.2,1.3-0.3c0-0.1,0-0.2,0-0.2
			c-0.6-1-0.4-1.8,0.3-2.7c0.2-0.3,0.4-0.4,0.8-0.3c0.6,0.3,1.1,0.2,1.5-0.4c0.2-0.2,0.6-0.3,0.9-0.4c1-0.2,2-0.5,2.7-1.4
			c0.1-0.2,0.5-0.3,0.8-0.2c0.7,0.1,1.4,0.2,2.1,0.4c0.2,0,0.4,0.3,0.5,0.4c0,0.5-0.4,0.3-0.6,0.4c-0.2,0-0.4,0.2-0.6,0.2
			c0.1,0.1,0.3,0.4,0.4,0.4c0.6,0.2,1.1,0,1.6-0.4c0.2-0.2,0.3-0.4,0.4-0.5c0.7-1.1,1.2-1.3,2.5-1c0.3,0.1,0.6,0.1,0.9,0.2
			c0.2-0.6,0.3-1.2,0.5-1.8c0.2-0.8,0.4-0.9,1.2-1c0.7-0.1,0.8-0.1,0.9-0.9c0-0.4,0.4-0.8,0.8-0.7c0.4,0,0.5,0.3,0.5,0.7
			c0.1,0.7-0.2,1.2-0.8,1.5c0.3,0.6,0.6,0.8,1.2,0.6c0.6-0.2,1.2-0.3,1.6,0.3c0.1,0.2,0.4,0.2,0.7,0.2c0.2,0,0.3,0.1,0.5,0
			c1-0.1,1.9,0,2.3,1.2c0.1,0.4,0.5,0.8,1,0.8c0.1,0,0.3,0,0.3-0.1c0.3-0.4,0-1.2-0.4-1.5c-0.4-0.2-0.8-0.3-1.1-0.4
			c-1.1-0.4-1.2-0.7-1.1-1.5c0-0.2,0-0.4-0.1-0.6c0.2-0.1,0.3-0.1,0.5-0.2c0.4-0.1,0.7-0.4,0.8-0.8c0.1-0.5,0.7-0.9,1.3-0.9
			c0.5,0,0.9,0.3,1,0.8c0.1,0.7,0.1,1.3,0.1,2c0,0.4,0.3,1,0.6,1s0.5-0.1,0.5-0.5c0-0.6-0.1-1.2-0.1-1.9c0-1,0.3-1.2,1.2-1.2
			c1.1,0.1,2.2,0.1,3.4,0.2c0.6,0,1.1,0.2,1.3,0.8c0,0.1,0.1,0.2,0.2,0.3c0.5-0.2,1.1-0.7,1.6-0.6c0.4,0,0.9,0.6,1.2,0.9
			c0.2-1.2,0.5-2.5,0.7-3.8c0.1-0.3,0.2-0.5,0.5-0.5s0.6,0,1-0.1c0.5-0.1,0.8-0.5,0.6-1c-0.1-0.4,0.1-0.6,0.3-0.9
			c0.3-0.3,0.7-0.3,1.1-0.3c0.1,0,0.2,0.2,0.2,0.3c0.1,0.5,0.1,1.1,0.1,1.6s0.2,0.6,0.7,0.4c0.1-0.1,0.2-0.1,0.4-0.2
			c0.7-0.3,1.3,0,1.4,0.7c0.1,0.4,0.3,0.6,0.6,0.6c0.2,0,0.4-0.3,0.5-0.5c0.2-0.3,0.4-0.5,0.7-0.6c0.2-0.1,0.4-0.5,0.6-0.8
			c0.5,0.5,1,1.1,1.5,1.7c0.1,0.2,0.2,0.5,0.2,0.7c0,0.4-0.2,0.6-0.7,0.5s-0.9-0.1-1.3,0.4c-0.2,0.2-0.8,0.2-1.2,0.2
			c-0.3,0-0.5-0.1-0.8-0.1c0.1,0.7,0.2,1.5,0.3,2.2c0,0.2,0,0.3,0,0.5c0.1,0.4-0.1,0.6-0.5,0.6c-0.7,0-0.8,0.1-0.7,0.8
			c0.1,0.5,0.1,0.9,0.2,1.4c0,0.1,0.2,0.4,0.3,0.3c0.2,0,0.4-0.1,0.5-0.3c0.2-0.3,0.2-0.7,0.3-1.1c0.1-0.4,0.3-0.6,0.8-0.6
			c0.8,0,1.6-0.1,2.3-0.2c0.6-0.1,1.3-0.2,1.7-0.7c0.1-0.1,0.3-0.2,0.4-0.2c0.6,0.1,0.8-0.3,1-0.7c0-0.1,0.1-0.1,0.1-0.2
			c0.2-0.1,0.3-0.3,0.5-0.4c0.1,0.2,0.3,0.3,0.4,0.5c0,0.2,0,0.5-0.2,0.6c-0.5,0.4-0.5,0.8-0.2,1.4c0.3,0.4,1.2,0.5,1.5,0.1
			c0.1-0.1,0.1-0.2,0.2-0.3c0.4-0.6,1.1-0.7,1.7-0.3c0.3,0.2,0.6,0.5,1,0.8c0-0.7,0-1.3-0.6-1.7c-0.5-0.4-0.3-1.4,0.3-1.7
			c0.2-0.1,0.5-0.2,0.7-0.4c0.4-0.3,0.8-0.3,1.1,0.1c0.3,0.3,0.4,0.7,0.1,1.1c-0.3,0.4-0.2,0.7,0,1c0.2,0.4,0.3,0.8,0.4,1.1
			s0.3,0.5,0.6,0.7c0.4,0.3,0.4,1.1-0.1,1.4c-0.3,0.2-0.7,0.3-1,0.5c-0.1,0.1-0.3,0.3-0.3,0.4c0.1,0.3,0.2,0.9,0.3,0.9
			c0.8,0.1,1,0.6,1.3,1.3c-0.6,0.3-1.2,0.7-1.8,1.1c0.2,0.6,0.5,1.2,0.8,1.8c0.1,0.1,0.4,0.2,0.6,0.3c0.6,0.1,1.3,0.3,1.9,0.4
			c0.2,0,0.5,0.2,0.5,0.3c-0.1,0.3-0.2,0.6-0.4,0.7c-0.2,0.2-0.6,0.3-0.8,0.4c-0.1,0-0.2,0.1-0.2,0.1c-0.3,0.2-0.9,0.3-0.9,0.8
			c0,0.6,0.6,0.6,1,0.7c0.4,0.1,0.8,0.3,0.8,0.8c0,0.2,0,0.4,0,0.6c-0.2,0.8-0.5,1.5-0.8,2.3c-0.1,0.1-0.3,0.2-0.4,0.3
			c-0.1,0-0.2,0-0.3,0c-0.9-0.2-1.6,0.1-2,1.1c-0.1,0.4-0.4,0.5-0.8,0.5c-0.3,0-0.7,0.4-0.7,0.6c-0.1,0.4,0,0.9,0.3,1.2
			c0.3,0.3,0.6,0.5,0.4,1c-0.1,0.3,0,0.4,0.3,0.5c0.3,0,0.6,0,0.9,0c0,0.3,0,0.5-0.1,0.8c0,0.3-0.2,0.7,0.3,1
			c0.4,0.2,0.4,1.2,0.1,1.7c-0.6,0.9-1.9,1.1-2.8,0.5c-0.1-0.1-0.2-0.3-0.3-0.4c-0.2-0.8-0.6-1-1.4-0.7c-0.2,0.1-0.6,0.2-0.5,0.6
			c0,0.5-0.3,1,0.3,1.3c1.2,0.6,1.4,1.7,1.2,2.9c0,0.1-0.2,0.4-0.3,0.4c-0.6,0.1-1.3,0.4-1.9,0.3c-1.2-0.1-1.4,0.7-1.1,1.6
			c0.3,0.8,0.1,1.2-0.8,1.2c-0.9,0-1.5,0.4-1.7,1.2c-0.1,0.4-0.3,0.8-0.4,1.2c-0.1,0.3-0.3,0.4-0.6,0.4c-0.8,0.1-1.5-0.3-2.2-0.7
			c-0.2-0.1-0.4-0.2-0.8-0.4c0.1,0.3,0.1,0.5,0.2,0.7c0.3,0.7,0.3,1.5,0,2.2c-0.2,0.4-0.1,0.6,0.3,0.7h0.1c0.9,0.5,1,0.6,0.3,1.4
			c-0.3,0.3-0.2,0.5,0,0.8c0.3,0.6,0.2,1.1-0.1,1.4c-0.5,0.5-1.2,0.5-1.7,0.2c-0.2-0.2-0.5-0.3-0.7-0.5c-1-0.6-2.3,0.1-2.3,1.2
			c0,0.4,0,0.7,0,1.1c0.1,0.6-0.1,1.1-0.7,1.4c-0.5,0.2-0.9,0.4-1.4,0.6c-0.3,0.1-0.5,0.4-0.4,0.7c0,0.2,0.1,0.3,0.1,0.5
			c0,0.9-0.2,1.3-1.1,1.5c-0.2,0.1-0.5,0.1-0.7,0.2c-0.2,0.1-0.4,0.2-0.4,0.3c0,0.2,0.1,0.5,0.2,0.7c0.1,0.2,0.4,0.3,0.6,0.4
			c0.7,0.4,0.8,1.1,0.3,1.7c-0.4,0.5-1.1,0.4-1.6-0.1c-0.3-0.4-0.7-0.6-1.2-0.5c-0.2,0-0.4,0.1-0.5,0.2c-0.7,0.6-1.4,1.1-2.1,1.7
			c-0.1,0.1-0.1,0.4-0.1,0.5c0.1,0.8,0,1.1-0.8,1.4c-0.5,0.2-1,0.3-1.5,0.4c0.2,0.4,0.4,0.8,0.6,1.1c0.3,0.8-0.1,1.3-0.9,1.4
			c-0.2,0-0.5,0.2-0.6,0.4c-0.5,1.1-1.5,1.3-2.6,1.3c-0.6,0-1.1,0-1.7,0c-0.3,0-0.5,0.1-0.5,0.4c0,0.5-0.2,0.9-0.7,1.2
			s-0.6,0.8-0.6,1.4c0,0.9-0.3,1.4-1.2,1.7c-1,0.3-2.1,0.5-3.1,0.7c-0.6,0.1-0.9,0.6-0.8,1.1c0,0.2,0.1,0.4,0.2,0.6
			c0.3,0.8,0,1.4-0.8,1.5c-0.9,0.2-1.7-0.1-2.5-0.5c-0.1,0-0.1-0.3-0.1-0.4c0.1-0.5,0.2-1,0.3-1.6c-0.1,0-0.2-0.1-0.2-0.1
			c-0.7,0.1-1.2-0.2-1.6-0.8c-0.1-0.1-0.1-0.2-0.2-0.2c-0.2-0.2-0.6-0.5-0.6-0.4c-0.3,0.2-0.6,0.5-0.6,0.8c-0.2,1.1,0,1.4,1.1,1.9
			c0.1,0,0.2,0.1,0.3,0.2c0.3,0.8-0.2,1.6-1.1,1.8c-0.6,0.1-1.1,0.1-1.7,0.2c-0.7,0.1-1.3,0.4-1.9,0.9c-0.1,0.1-0.3,0.3-0.5,0.3
			c-0.4,0-1,0-1.2-0.2c-0.3-0.3-0.2-0.9-0.2-1.3c0-0.1,0.2-0.2,0.3-0.2c0.1-0.1,0.3-0.1,0.4-0.2c1-0.4,1.1-0.4,0.8-1.4
			c-0.1-0.2-0.6-0.4-0.9-0.6c0,0-0.1,0-0.2,0c-0.6,0.2-1.2,0.6-1.9,0.6c-0.1,0-0.4,0.5-0.4,0.8c-0.1,0.5-0.3,0.9-0.8,1.1
			c-0.6,0.3-1.2,0.6-1.8,0.8c-0.5,0.2-0.9-0.1-0.9-0.6c0-0.3,0.1-0.7,0.2-0.9C201.2,222.5,201.2,222.5,201.1,221.7z"/>
		<path fill="#FF671B" d="M208.8,88.3c-0.4-0.6-0.8-1-1.5-1.2c-0.4-0.1-0.8-0.3-1.2-0.6c-0.2-0.1-0.3-0.5-0.3-0.7
			c0.1-0.2,0.3-0.5,0.5-0.7c0.1-0.1,0.4-0.1,0.5-0.2c0.3-0.3,0.6-0.6,1-0.5c0.6,0.1,1.2,0.3,1.8,0.5c0.1,0,0.1,0.4,0.2,0.6
			c0.1,0.2,0.1,0.6,0.3,0.6c0.4,0,0.8,0,1.2-0.1c0.1,0,0.2-0.1,0.2-0.2c0.5-0.8,1.3-1.1,2.3-1c0.4,0,0.8,0,1.1-0.1c0-1,0-1.8,0-2.7
			c0-0.2-0.1-0.7,0.3-0.6c0.3,0,0.8,0,0.8,0.6c0,0.2,0.2,0.5,0.4,0.6c0.8,0.6,0.9,0.9,0.2,1.6c-0.4,0.4-0.2,0.7,0.1,0.9
			c0.4,0.2,0.9,0.4,1.3,0.5c0.1,0,0.3-0.1,0.4-0.3c0.2-0.2,0.4-0.5,0.7-0.8c0.2-0.2,0.6-0.3,0.6-0.6c0.1-0.4,0-0.8-0.2-1.1
			c-0.1-0.3-0.2-0.5,0-0.6s0.6-0.1,0.8,0s0.3,0.4,0.4,0.6c0.2,0.3,0.4,0.4,0.7,0.4c0.2,0,0.4,0.1,0.6,0.1c0.1,0,0.3,0.1,0.4,0
			c0.9-0.5,1.9-0.4,2.8-0.4c0.8,0.1,1.3-0.3,1.7-1c0.5-1.1,0.6-1.1,1.8-0.9c0.3,0.1,0.7,0.1,1.1,0.2c0-0.3,0.1-0.5,0.1-0.7
			c0.1-0.4,0.4-0.6,0.7-0.4c0.6,0.4,1.3,0.7,1.9,1.1c0.4,0.3,0.6,0.7,0.8,1.1c0.2,0.6-0.1,1-0.7,1c-0.8,0-1.5-0.1-1.9-0.8
			c-0.3-0.6-0.8-0.7-1.4-0.6c-0.3,0.1-0.9-0.2-1,0.3s0.4,0.5,0.7,0.7c0.4,0.3,0.3,0.7,0.3,1.1c0,0.2-0.1,0.4-0.2,0.6
			c-0.2,0.7-0.1,0.9,0.5,1.2c0.4,0.2,0.7,0.5,0.7,0.9c0.1,0.4,0.3,0.6,0.7,0.4c0.1,0,0.1,0,0.2,0c1-0.2,1.5-0.8,1.6-1.8
			c0-0.2,0.1-0.5,0.3-0.6c0.3-0.2,0.6-0.1,0.7,0.2c0.2,0.3,0.4,0.7,0.6,1c0.2,0.4,0.4,0.9,0.6,1.3c0.3,0.7,0.8,1.1,1.6,1.2
			c0.7,0.1,1.1,0.4,1.2,1.1c0.1,0.5,0.4,0.6,0.8,0.6c0.4,0,0.9,0,1.3-0.1c1.1-0.1,1.6,0.1,2.1,1.1c0.7,1.4,1.1,2.9,0.8,4.5
			c-0.1,0.4-0.3,0.7-0.5,1.1c-0.1,0.1-0.2,0.3-0.4,0.4c-0.9,0.6-1,1.5-0.9,2.5c0.2,1.2,0.5,2.4,0.7,3.7c0.1,0.3,0,0.5-0.2,0.7
			c-0.4,0.4-0.7,0.9-1,1.3c0.7,1.4,1.8,0.7,2.7,0.6c0.3,0.5,0.8,0.8,0.7,1.5c-0.1,0.4-0.1,0.6-0.4,0.8c-0.5,0.4-1,0.7-1.4,1.2
			c-0.2,0.2-0.3,0.5-0.2,0.7c0.3,0.5,0.1,1,0,1.6c0,0.3-0.1,0.6-0.1,0.8c0.1,0.6-0.1,0.9-0.8,1c-0.1-0.2-0.2-0.4-0.2-0.6
			c-0.2-0.4-0.3-0.8-0.6-1.1c-0.5-0.6-1.3-0.8-1.9-0.3c-0.4,0.3-0.9,0.5-1.4,0.4c-0.7,0-1.3,0.1-1.6,0.8c-0.1,0.2-0.4,0.3-0.7,0.4
			c-0.2,0.1-0.5,0.1-0.8,0.2c0.4,1,0.7,1.9,1,2.8c-1.1,0.4-0.9,1.3-0.8,2.3c-0.2,0-0.5,0.1-0.7,0.1c-0.2,0.1-0.4,0.2-0.4,0.4
			c-0.1,0.2,0,0.5,0.3,0.6c0.4,0.1,0.9,0.3,1.4,0.6c-0.3,0.5-0.6,1-0.9,1.5c-0.3,0.4-0.3,0.9,0,1.3s0.3,0.8,0.2,1.2
			c-0.2,0.7-0.2,1.5-0.5,2.2c-0.1,0.3-0.4,0.7-0.7,0.9c-0.5,0.3-1,0.4-1.6,0.6c-0.1-0.2-0.1-0.3-0.2-0.5c-0.2-0.6-0.5-0.7-1.1-0.5
			c-0.1,0-0.2,0.2-0.2,0.4c-0.1,0.3-0.1,0.6-0.3,0.8c-0.6,0.7-1.2,0.9-1.9,0.3c-0.2-0.2,0-0.7,0-1.1c0-0.1,0.2-0.1,0.3-0.2
			c0.7-0.5,0.7-0.6,0.5-1.4c-0.1-0.4,0.1-0.9,0.1-1.3c-0.6,0.1-1.3,0.9-1.4,1.7c-0.2,1.1-0.2,1.2-1.4,1.4c-0.2,0-0.5,0-0.5,0.4
			c0.1,1.1,0,2.1-0.5,3.2c0.5,0,0.8,0,1.2,0c0.3,0,0.7,0,1,0.1c1.1,0.3,1.5,1.6,0.6,2.3c-0.7,0.6-1.6,1-2.5,1.4
			c-0.3,0.2-0.8-0.3-0.8-0.7c0-0.1,0-0.1,0-0.2c-0.1-0.1-0.2-0.3-0.3-0.4c-0.1,0.1-0.3,0.3-0.2,0.4c0.1,0.5-0.1,0.7-0.4,0.9
			c-0.7,0.6-0.6,1,0.2,1.4c0.3,0.1,0.6,0.3,0.9,0.4c0.6,0.3,0.7,0.8,0.4,1.4c-0.6,1.1-1.5,1.9-2.9,1.8c-0.2,0-0.3,0-0.5,0
			c-0.3,0-0.6-0.2-0.8,0.3c-0.1,0.5-0.2,0.9,0.4,1.2c0.3,0.1,0.5,0.2,0.8-0.2c0.6-0.9,2.1-1.1,3-0.5c0.3,0.2,0.3,1.1-0.1,1.2
			c-0.8,0.4-1.6,1-2.7,0.7c-0.2-0.1-0.4,0-0.6,0c-0.6,0.1-0.9,0.4-0.6,1c0.5,1,0.4,1.3-0.6,2.2c-0.1,0-0.1,0.1-0.2,0.1
			c-0.9,0.9-1.9,1.3-3.2,0.9c-0.2,0-0.3,0-0.5,0.1c0.3,0.2,0.6,0.3,0.9,0.6c0.2,0.2,0.4,0.3,0.5,0.6c0.2,0.8-0.3,1.5-1.2,1.5
			c-0.5,0-0.9,0-1.4-0.1c-0.7-0.1-1.3,0-1.6,0.7c-0.1,0.2-0.3,0.3-0.5,0.4c-0.5,0.3-1.2,0.6-1.6,1c-0.7,0.7-1.5,0.5-2.2,0.4
			c-0.5-0.1-0.7,0.1-0.8,0.5c-0.2,0.4-0.4,0.8-0.6,1.2c-0.3,0.5-0.8,0.7-1.4,0.6c-0.5-0.1-0.9-0.2-1.4-0.3s-1,0-1.2,0.5
			c-0.3,0.7-0.9,0.7-1.5,0.5c-0.7-0.2-1.3-0.4-2-0.6c-0.5-0.2-1-0.4-1.1-1c-0.1-0.2-0.5-0.3-0.7-0.4c-0.2-0.1-0.5-0.2-0.7-0.4
			c-0.4-0.6-0.7-0.7-1.4-0.5c-0.2,0.1-0.4,0.1-0.6,0.2c-0.4,0.1-0.7,0-0.9-0.3c-0.5-0.6-1.3-0.8-2-0.2c-0.6,0.5-1,1.1-1.4,1.7
			c-0.6,0.8-0.5,0.9-1.5,0.6c-0.6-0.2-1.1-0.5-1.4-1.1c-0.1-0.2-0.2-0.4-0.3-0.6c-0.4-0.6-1-0.7-1.5-0.2c-0.7,0.7-0.9,0.7-1.8,0.4
			c-0.6-0.2-1.3-0.2-2-0.2c-0.3,0-0.6,0.1-0.8-0.4c-0.1-0.4-0.3-0.7,0.2-1c0.4-0.3,0.9-0.6,0.5-1.3c-0.4,0-0.8,0.1-1.2,0.1
			c-0.8,0.1-1.4-0.3-1.7-1.1c-0.2-0.5-0.4-1-0.6-1.5c-0.4,0.4-0.7,0.9-1.1,1.3c-0.1,0.1-0.4,0.2-0.6,0.2c-1.6-0.3-1.6-0.4-1.6-2
			c0-0.8,0-0.8-0.8-1.1c-0.6-0.2-1.3-0.3-1.4-1.1c0-0.2-0.4-0.3-0.6-0.4c-0.8-0.2-0.9-0.2-0.9-1.1c0-1.1-0.1-2.2-0.1-3.3
			c0-0.2,0-0.3,0-0.5c-0.3,0-0.5,0-0.7,0c-1,0.2-1.7-0.5-1.4-1.5c0.2-0.7,0.6-1.3,0.9-1.9c0-0.1,0.1-0.2,0.2-0.3
			c-0.4-0.5-0.7-0.9-1.1-1.4c-0.3-0.5-0.6-1-1-1.5c0.5-0.3,0.6-0.7,0.6-1.2c0-0.1,0-0.2,0-0.3c-0.2-1.1,0.1-1.9,1-2.6
			c0.1-0.1,0.3-0.3,0.4-0.4c0.3-0.4,0.1-0.9-0.3-1c-0.7-0.2-0.9-1.1-0.3-1.6c0.8-0.6,1.6-1.2,2.4-1.8c0.5-0.4,0.6-1.1,0.1-1.5
			c-0.7-0.6-0.7-0.7-0.4-1.5c0.4-1,1.1-1.8,1.8-2.5c0.3-0.2,0.4-0.4,0.2-0.8c-0.5-1.4-0.2-2.3,1.3-2.9c0.4-0.2,0.9-0.3,1.4-0.5
			c-0.6-0.2-1-0.4-1.5-0.6c-0.6-0.2-0.7-0.9-0.3-1.3c0.8-0.8,1.7-1.6,2.5-2.4c0.1-0.1,0.2-0.2,0.3-0.3c0.6-0.5,0.7-1.1,0.4-1.8
			c-0.2-0.5-0.4-0.9,0.1-1.4c0.6-0.5,1.4-0.3,1.6,0.4c0.1,0.5,0.1,1.1,0.1,1.6c0,0.2,0,0.3,0,0.5c0.6-0.1,1.1-0.2,1.6-0.3
			c0.5,0,1.1,0,1.6,0c0.1-0.3,0.1-0.5,0.2-0.8c0.1-0.5-0.2-0.9-0.8-0.8c-0.9,0.1-1.1,0-1.3-0.8c-0.2-0.7-0.6-1.2-1.2-1.4
			c-0.4-0.2-0.8-0.4-0.7-1s0.1-1.2,0.8-1.4c0.9-0.2,1.7-0.5,2.6-0.7c0.4-0.1,0.5-0.3,0.7-0.6c0.2-0.7,0.5-1.3,0.7-2
			c0.1,0,0.1,0,0.2,0c-0.1-0.2-0.3-0.3-0.3-0.5c-0.1-0.3-0.3-0.7-0.2-1c0.1-0.4,0.4-0.7,0.9-0.6c0.7,0,1.3,0,2,0
			c0.2-0.4,0.2-0.7-0.3-0.9c-0.1,0-0.2-0.3-0.2-0.4c0-0.3-0.2-0.7,0.2-1c0.6-0.3,1.1-0.3,1.7-0.1c0.7,0.3,0.8,0.3,1.1-0.5
			c0.3-0.7,0.6-1.4,0.9-2.2c0.1-0.2,0.2-0.3,0.4-0.4c0.3-0.1,0.6-0.1,0.8-0.1c0.5,0,0.8,0.2,0.9,0.7c0,0.1,0.2,0.3,0.3,0.4
			c0.1-0.1,0.3-0.2,0.4-0.3c0.2-0.5,0.4-1,0.6-1.5c0.1-0.2,0.3-0.4,0.5-0.4c1.3-0.3,2.5-0.6,3.8-1c0.1,0,0.3-0.2,0.3-0.4
			c0.1-0.3,0.1-0.7,0.1-1c0-0.8,0.6-1.1,1.4-1.4c0.5-0.2,0.9,0.1,1.2,0.8c0.2,0.3,0.3,0.7,0.4,1c0.1,0.2,0.2,0.6,0.4,0.7
			c0.5,0.1,1.1,0.3,1.5-0.2c0.6-0.7,1.4-0.9,2.2-0.7c0.5,0.1,0.9,0.3,1.3,0.5C208,88.9,208,88.9,208.8,88.3z"/>
		<path fill="#FF671B" d="M123.2,113.1c-0.2,0-0.4,0-0.5,0c-0.4,0.1-0.7-0.1-1.1-0.4c-0.5-0.3-1.1-0.5-1.6-0.7
			c-0.2-0.1-0.6-0.2-0.6-0.4c-0.1-0.4-0.2-0.9,0.3-1.2c0.4-0.3,0.9-0.6,1.4-0.9c-0.5-0.8-1-1.6-1.5-2.3l-0.1-0.1
			c-0.7-0.2-0.8-0.6-0.6-1.3c0.1-0.5,0.1-1.1,0.6-1.4c0.1-0.1,0.1-0.3,0.1-0.5c0-0.1-0.2-0.2-0.4-0.2c-0.5,0-1,0-1.5-0.1
			c-0.6-0.1-0.8-0.5-0.5-1.1c0.3-0.5,0.5-1.1,1.3-1.1c0.2,0,0.4-0.3,0.5-0.4c0.1-0.7,0.6-1.1,1.2-1.4c0.1-0.1,0.2-0.2,0.3-0.2
			c-0.3-0.8-0.5-1.6-0.8-2.3c0.4-0.6,0.8-0.7,1.5-0.5c1.1,0.3,2,0.8,2.7,1.8c0.2-0.3,0.3-0.6,0.4-0.8c0.2-0.5,0.5-0.7,1-0.7
			c0.8,0,1.5-0.2,2-1c-0.3,0-0.6,0-0.8-0.1c-0.4-0.1-0.8-0.1-1.2-0.3c-0.6-0.3-0.7-0.7-0.6-1.4c0-0.1-0.1-0.4-0.2-0.5
			c-0.8-0.6-1-1.2-0.7-2.1c0.2-0.6,0.5-1.1,0.7-1.7c-0.5-0.5-1-1-1.8-0.9c-0.2,0-0.6-0.2-0.6-0.4c-0.1-0.6-0.1-1.3,0.4-1.8
			c0.7-0.8,1.4-1.6,2-2.4c0.8-1,1.5-2,2.2-3.1c0.4-0.6,0.2-1.2,0.2-1.9c0-0.4-0.1-0.8-0.2-1.2c-0.1-0.5,0.1-0.9,0.6-0.9
			c0.9-0.2,1.7-0.3,2.6-0.4c0.1,0,0.2,0,0.3,0c-0.1-0.7-0.3-1.3-1.1-1.3c0-0.2,0.1-0.4,0.1-0.6c0-0.6,0.1-1,0.9-1
			c0.1,0,0.4-0.3,0.3-0.5c-0.2-0.9,0.2-1.6,0.8-2.1c0.3-0.3,0.4-0.6,0.2-1.1c-0.4-0.9-0.4-1.8,0.2-2.6c0.4-0.5,2-0.9,2.4-0.4
			c0.2,0.1,0.2,0.5,0.2,0.8c-0.1,0.8-0.3,1.5-0.5,2.3c0.5-0.1,1.1,0.1,1.4-0.5c0-0.1,0.3-0.1,0.4-0.1c0.4,0,0.7,0,1.1,0.1
			c0.8,0.1,1.2-0.3,1.3-1.1c0-0.2,0-0.3,0.1-0.5c0.1-0.6,0.1-0.6-0.6-0.7c-0.1,0.7-0.5,1.1-1.1,1.1c-0.5,0-0.8-0.2-0.7-0.6
			c0.1-0.9,0.2-1.8,0.4-2.6c0.1-0.4,0.4-0.6,0.8-0.6c0.9-0.1,1-0.2,1.1-1.1c0-0.2,0.2-0.4,0.3-0.6c0.3-0.4,0.5-0.8,0.8-1.2
			c0.5-0.7,1-0.7,1.4,0c0.1,0.2,0.4,0.3,0.6,0.3c0.3,0.1,0.6,0,0.9,0c0.6-0.1,1.1,0,1.5,0.5c0.1,0.1,0.2,0.3,0.2,0.5
			c-0.1,0.7-0.1,1.4,0.4,1.9c0.1,0.2,0.4,0.3,0.6,0.3c0.1,0,0.3-0.2,0.4-0.4c0.2-0.5,0.3-1,0.4-1.5c0-0.1-0.1-0.3-0.2-0.4
			c0-0.1-0.2,0-0.2-0.1c-0.3-0.5-0.7-1-0.8-1.6c-0.1-0.3,0.2-0.8,0.4-1.1c0.1-0.2,0.5-0.4,0.8-0.6c-0.1-0.2-0.2-0.5-0.3-0.8
			c-0.3-1-0.2-1.3,0.7-1.8c0.3-0.2,0.3-0.4,0.4-0.7c0.2-0.4,0.4-0.9,0.8-1.1c0.4-0.2,0.9-0.1,1.3,0.1c0.4,0.2,0.4,1,0,1.3
			c-0.1,0.1-0.1,0.1-0.2,0.1c-0.7,0.4-0.7,0.5-0.3,1.2c0.8-0.1,1.5-0.4,2-1.2c0.7-1.2,1.7-1.2,2.6-0.2c0.2,0.2,0.5,0.3,0.7,0.3
			c0.4,0.1,0.5-0.3,0.6-0.6c0.3-0.9,0.7-1.7,1-2.6c0.2-0.6,0.7-0.8,1.3-0.7c0.2,0,0.4,0,0.5,0.1c0.5,0.1,1.1,0,1.4-0.4
			c0.6-0.7,1.4-0.9,2.3-0.7c0.3,0.1,0.6,0,0.9,0c0.6,0,0.9-0.5,0.7-1c-0.2-0.8-0.2-1.1,0.4-1.3c0.9-0.4,2,0.4,2,1.3
			c0,0.5-0.1,0.9-0.2,1.4c-0.1,0.4,0.1,0.6,0.4,0.9c0.2,0.2,0.4,0.5,0.5,0.9c0.3,1,1.4,1.5,2.3,0.9c0.3-0.2,0.5-0.7,0.5-1.1
			c0-0.6-0.1-1.2-0.2-1.7c0-0.2-0.1-0.3-0.1-0.6c0.4-0.2,0.9-0.3,1.3-0.5c0.5-0.2,0.9-0.5,1.3-0.8c0.7-0.5,1.2-0.6,1.8,0.1
			c0.5,0.6,0.9,1.2,1.4,1.8c0.3,0.4,0.3,0.9,0.1,1.4c-0.5,1.2-0.4,1.6,0.6,2.5c0.4,0.4,0.8,0.7,0.8,1.4c0,0.1,0.2,0.2,0.3,0.4
			c0.1-0.1,0.3-0.3,0.3-0.4c0-0.2,0-0.5,0-0.7c0-0.5,0.5-1.1,1-1c0.7,0.1,1.3,0.3,2,0.4c0.1,0,0.2,0.2,0.2,0.4
			c0.1,0.9,0.3,1.9,0.3,2.8c0,0.4,0.1,0.6,0.5,0.6c0.5,0,0.9,0.1,1.4,0.1s0.8-0.1,0.9-0.6c0.1-0.4,0.2-0.8,0.3-1.2
			c0.5,0.2,1.1,0.2,1.5,0.5c0.2,0.1,0.4,0.5,0.5,0.8c0.2,0.6,0.4,1.2,0.6,1.8c0.1,0.3,0.1,0.8,0,1.1c-0.3,0.8-0.3,1.6,0,2.5
			c0.3,0.6,0.2,1.3-0.2,1.9c-0.2,0.2-0.3,0.5-0.5,0.7c-0.6,0.7-0.5,0.6,0,1.2c0.4,0.5,0.5,0.8,0.2,1.4c-0.1,0.2-0.3,0.4-0.3,0.7
			c-0.1,0.5-0.4,0.5-0.9,0.4c0-0.4,0-0.8,0-1.2c0-0.1-0.2-0.3-0.3-0.4c-0.1,0.1-0.3,0.2-0.3,0.3c-0.1,0.5-0.1,1-0.1,1.4
			c0,0.5,0.3,0.9,0.8,1.2c0.7,0.4,0.9,1.5,0.4,2.1c-0.1,0.1-0.1,0.2-0.2,0.2c-0.6,0.6-0.8,1.3-0.5,2.1c0.2,0.4,0.1,0.8-0.3,1.1
			c-0.5,0.5-0.7,1.1-0.4,1.8c0.1,0.2,0,0.4,0,0.5c-0.2,0.4-0.5,0.8-0.8,1.2c-0.4,0.6-1,1-1.7,1.3c-0.6,0.2-0.6,0.7-0.2,1.1
			c0.3,0.3,0.5,0.5,0.2,1c-0.2,0.5-0.1,1,0.3,1.5c0.2,0.2,0.5,0.6,0.5,0.9c0,1.1,0.2,0.8-0.9,1.1c-0.5,0.1-1,0.1-1.4,0.1
			c-0.5,0-0.9-0.2-1-0.8c-0.2-0.5-0.8-0.6-1.1-0.1c-0.3,0.6-0.7,0.9-1.4,0.9c-0.3,0-0.4,0.2-0.4,0.5c0,0.4,0,0.8,0,1.3
			c0.1,0,0.2,0,0.3-0.1c0.4-0.3,0.7-0.2,1,0.2c0.1,0.2,0.4,0.3,0.6,0.4c0.1-0.2,0.3-0.4,0.3-0.6c0.1-0.2,0.2-0.5,0.2-0.7
			c0-0.4,0.4-0.5,0.6-0.5c0.1,0,0.4,0.1,0.4,0.2c0,0.2-0.1,0.5-0.2,0.6c-0.5,0.5-0.5,1-0.3,1.6c0.1,0.4,0.2,0.8,0.4,1.2
			c-1,0.3-1.7,0.9-1.5,2c-1.1,0.2-1.4,0.7-1.3,1.8c0,0.2,0,0.4-0.1,0.6c-0.5,0.5-0.5,0.9,0.1,1.4l0.1,0.1c0.9,0.6,1,0.7,0.7,1.8
			c-0.1,0.5-0.1,0.8,0.4,0.9s0.6,0.5,0.6,0.9s-0.2,0.7-0.6,0.8c-0.8,0.3-1.6,0.5-2.4,0.3c-0.2,0-0.4,0-0.8,0
			c0.2,0.4,0.3,0.7,0.4,0.9c0,0.1,0.1,0.2,0.1,0.3c0.2,0.9,0.4,1.1,1.3,1.1c0.5,0,1,0.1,1.3,0.5c0.2,0.2,0.2,0.4,0.3,0.7
			c0.1,0.5-0.1,0.7-0.5,0.9c-1,0.5-2,1.1-3.1,1.6c0.4,0.3,0.7,0.5,1,0.7c0.6,0.5,0.6,0.9,0.1,1.4c-0.2,0.2-0.5,0.4-0.7,0.6
			c-0.4,0.4-0.4,0.8,0,1.1c0.2,0.2,0.3,0.3,0.2,0.6c-0.2,0.4-0.4,1-0.7,1.3c-0.6,0.6-0.7,1.2-0.6,1.9c0.2,0.9,0.2,0.9-0.6,1.3
			c-0.6,0.4-1.2,0.8-1.5,1.5c-0.1,0.3-0.6,0.4-1,0.5c-0.3,0.1-0.7,0-1-0.1c-0.8-0.1-1.1,0.1-1.5,0.8c-0.4,0.9-0.4,0.9,0.3,1.6
			c0.5,0.4,0.2,0.8,0.1,1.2c0,0.3-0.3,0.5-0.6,0.5c-0.7,0.1-1.2,0.4-1.6,0.9c-0.1,0.2-0.4,0.2-0.6,0.3c-0.2,0.1-0.5,0.2-0.6,0.4
			c-0.6,1-1.1,1.2-2.2,0.9c-0.4-0.1-0.7-0.2-1.1-0.3c-0.9-0.3-1.3,0-1.3,0.9c0,0.4-0.6,0.9-1.1,0.9c-0.5,0.1-1,0.1-1.5,0.1
			c-0.7,0-1.2,0.3-1.4,1c-0.5,1.4-1.1,1.7-2.6,1.3c-0.4-0.1-0.9-0.3-1.3-0.4c-0.8-0.3-1.5-0.2-2.2,0.5s-1.8,0.7-2.5-0.1
			c-0.1-0.1-0.3-0.4-0.2-0.5c0.2-0.7-0.3-1-0.8-1.2c-0.1,0-0.2-0.1-0.3-0.1c-0.5,0.5-0.9,0.9-0.7,1.7c0.5,0,0.7,0.3,0.8,0.7
			c0.2,0.5,0.6,0.8,1.1,0.8c0.2,0,0.5,0.1,0.8,0.1c0,0.3,0.1,0.5,0,0.7s-0.3,0.5-0.5,0.6c-0.3,0.1-0.7,0.2-0.9-0.2
			c0-0.1-0.1-0.2-0.2-0.3c-0.1-0.4-0.3-0.5-0.6-0.3c-0.9,0.4-1.5,0-2-0.6c-0.5-0.7-1.1-1.3-2.1-1.2c-0.4,0-0.6,0.1-0.7,0.5
			c-0.1,0.4-0.3,0.4-0.7,0.4c-0.8,0.1-1.4-0.2-1.9-0.9c-0.7-0.9-0.8-1.8-0.8-2.8c0-0.2,0-0.4,0-0.6c-0.7,0.1-1.1,0.3-1.2,0.9
			c-0.1,0.4-0.3,0.4-0.6,0.5c-1.5,0.1-2.7-0.7-3.7-1.6c-0.2-0.2-0.1-0.7-0.1-1.1c0-0.1,0.1-0.2,0.2-0.3c0.1-0.3,0.3-0.7,0.2-0.8
			c-0.2-0.2-0.6-0.4-1-0.4c-0.2,0-0.5,0.1-0.7,0.1c-0.4,0.1-0.6,0-0.9-0.3c-0.5-0.5-0.9-0.5-1.3,0.1c-0.3,0.5-0.8,0.5-1.2,0.6
			c-0.2,0-0.6-0.4-0.5-0.6c0.2-1.2-0.3-2.2-0.6-3.3c-0.2-0.7-0.2-1.4-0.1-2c0.1-0.4,0.2-0.8-0.2-1.2c-0.2-0.3-0.3-0.7-0.4-1.1
			c-0.1-0.3-0.2-0.5-0.6-0.5c-0.1,0-0.3,0-0.4,0c-0.8-0.1-0.9-0.2-1.1-1c-0.1-0.3,0.4-0.8,0.8-0.8c0.2,0,0.4,0.1,0.6,0.1
			c0.3,0.1,0.5,0.1,0.6-0.3C122.9,114.1,123,113.6,123.2,113.1z"/>
		<path fill="#FF671B" d="M64.8,149.9c-0.8,0.1-1.5,0.2-2.2,0.3c-0.1,0-0.3-0.1-0.5-0.2c0,0,0-0.1-0.1-0.1c-0.9-1.3-0.5-2.1,1-2.4
			c0.2,0,0.5,0,0.7-0.1s0.4-0.2,0.4-0.3c0-0.2-0.1-0.4-0.3-0.5c-0.1-0.1-0.3-0.2-0.5-0.2c-0.5-0.2-0.9-0.1-1.2,0.3
			c-0.9,1-2.1,1.2-3.3,1.1c-0.7-0.1-1.6-1.2-1.5-1.9c0-0.2,0.2-0.4,0.3-0.5c0.3-0.2,0.7-0.4,1.1-0.7c0.2-0.1,0.4-0.3,0.5-0.5
			s0.1-0.5,0.1-0.7c0-0.1-0.3-0.1-0.5-0.1c-0.5,0-1.1,0-1.6-0.1c-0.9-0.2-1.2-0.7-0.9-1.6c0.1-0.2,0.1-0.5,0-0.7
			c-0.4-0.8-0.5-1.6,0.1-2.4c-0.3-0.2-0.6-0.3-0.9-0.5c-0.2,0.3-0.3,0.6-0.5,0.9c-0.3,0.3-0.6,0.7-1,0.9c-0.5,0.3-0.8,0.2-1.1-0.3
			c-0.2-0.4-0.6-0.6-1-0.5c-0.6,0-1-0.1-1-0.8c0-0.4-0.2-0.8-0.2-1.2c0-0.6,0.4-1,1-0.9c0.3,0,0.5,0.1,0.8,0.2
			c0.2,0.1,0.5,0.2,0.9,0.3c0-0.6,0-1.1,0-1.6c0-0.1-0.1-0.3-0.2-0.4c-0.7-0.7-0.8-1.2-0.4-2.1c0-0.1,0.1-0.2,0.1-0.3
			c-0.4-0.3-0.7-0.4-1,0.1c-0.6,1-1.7,1-2.7,0.9c-0.1,0-0.2-0.2-0.3-0.3s-0.2-0.3-0.3-0.3c-0.5-0.3-0.6-0.7-0.5-1.2s0-1,0.5-1.5
			c0.2-0.1,0.1-0.6,0.1-0.9c0-0.4-0.1-0.8-0.1-1.2c0-0.7,0.2-1.3,0.8-1.6c0.4-0.2,0.3-0.6,0.3-0.9c0-0.1-0.3-0.3-0.4-0.4
			c-0.1-0.1-0.2-0.2-0.3-0.3c-0.2-1.1-0.3-2.1-0.4-3.2c0-0.2,0.2-0.4,0.3-0.7c0.1-0.2,0.2-0.3,0.3-0.5c0.2-0.9,0.2-1.8-0.3-2.6
			c-0.2-0.3-0.4-0.6-0.4-1c-0.1-0.5,0-1.1,0.6-1.3c1-0.4,1.4-1.2,1.3-2.4c-0.1-0.8,0.3-1.6,0.4-2.4c0.1-0.5,0-1,0.1-1.5
			c0-0.2,0.2-0.5,0.3-0.6c0.3-0.2,0.6-0.4,0.9-0.5c0.2-0.1,0.4-0.1,0.5,0c0.5,0.6,1,0.1,1.6,0.1c-0.1-0.6-0.2-1.2-0.3-1.8
			c-0.1-0.5,0.3-1,0.8-1c0.2,0,0.5,0,0.7,0c0.7,0,0.9-0.2,1-0.9c0.1-0.4,0.1-0.8,0.1-1.2c0-0.1-0.2-0.3-0.4-0.4
			c-0.3-0.1-0.8,0.2-0.9-0.3c-0.2-0.7-0.3-1.4,0.2-2s1.1-0.7,1.8-0.3c0.1,0.1,0.3,0.1,0.3,0c0.1-0.1,0.2-0.3,0.2-0.5
			c0-0.7-0.1-1.4-0.1-2.1c0-0.3,0.1-0.4,0.4-0.5c1.1-0.3,2.2-0.7,3.4-0.4c0.2,0,0.5-0.1,0.6-0.3c0.6-0.7,1.2-1.5,1.8-2.2
			c0.5-0.6,1-1.1,1.7-1.2c0.6-0.1,1-0.5,1.1-1.1c0.1-0.5,0.4-0.7,0.9-0.6c0.5,0,1.1-0.1,1.6-0.2c0.2-0.1,0.4-0.3,0.7-0.5
			c0.1-0.1,0.3-0.2,0.4-0.2c0.4-0.1,0.6-0.3,0.8-0.6c0.3-0.7,0.6-0.8,1.3-0.8c0.9,0,1,0,1.3-0.8c0.2-0.6,0.5-0.8,1.1-0.8
			c0.8,0,1.1-0.3,1.2-1c0.1-1.1,0.8-1.8,1.5-2.6c0.1-0.2,0.4-0.2,0.6-0.3c0.4-0.2,0.8-0.3,1.1-0.5c0.3,0.6,0.4,1.3,1.1,1.2
			c0.2,0,0.4-0.1,0.5-0.2c0.4-0.8,0.8-1.6,1.2-2.3c0-0.1,0.1-0.2,0.1-0.3c0.2-0.2,1.7,0,1.9,0.2c0.1,0.1,0.2,0.1,0.3,0.2
			c0-0.1,0.1-0.3,0-0.4c-0.2-0.5,0.3-1.3,0.9-1.3c1.2,0.1,2.4,0.3,3.6,0.5c0.3,0.1,0.7,0.4,0.9,0.7c0.4,0.5,0.7,1,1.1,1.5
			c0.4,0.6,0.9,0.8,1.6,0.5c-0.4-0.7-0.4-1.6-1.4-1.9c0.1-0.1,0.1-0.2,0.1-0.2c0.6-0.6,1-1.3,1-2.3c0-0.3,0.2-0.5,0.5-0.6
			c1.2-0.3,1.5-0.2,2.2,0.9c0.1,0.1,0.1,0.2,0.2,0.2c0.6,0.4,2.2-0.3,2.2-1.1c0-0.1,0-0.2,0-0.4c0-0.3-0.1-0.7,0.4-0.8
			c0.5-0.1,0.9-0.2,1.2,0.3c0,0.1,0.1,0.1,0.1,0.2c0.7,1.2,0.9,1.2,2.3,1c0.3-0.1,0.7-0.1,1.1-0.1c0.9,0,1.3,0.3,1.5,1.1
			c0,0.2-0.2,0.5-0.4,0.7c-0.2,0.2-0.5,0.3-0.8,0.5c-0.3,0.1-0.5,0.3-0.8,0.4c0,0.6,0,1.2,0,1.9c0,0.3,0.2,0.6,0.5,0.8
			c0.6,0.4,1.1,0.9,1.6,1.4c0.1,0.1,0.2,0.3,0.4,0.5c0.2-0.8,0.4-1.6,0.6-2.5c-0.3,0-0.6,0-0.9,0c-0.7,0-0.9-0.3-0.9-0.9
			c0-0.7,0.1-1.3,0.9-1.5c0.1,0,0.3-0.2,0.4-0.3c0.5-0.4,0.6-0.4,1,0.2c0.1,0.2,0.3,0.3,0.5,0.3c0.6,0.1,1.3,0.1,1.9,0.2
			c0.5,1.7-0.9,1.9-1.8,2.4c0.2,0.9,0.5,1.8,0.7,2.8c0.4,0.2,0.7,0,1-0.4c0.2-0.3,0.4-0.7,0.8-0.6c0.3,0,0.6,0.1,0.7,0.3
			c0.3,0.4,0.6,0.4,1,0.3c0.5-0.1,0.9-0.3,1.4-0.5c0.1,0.3,0.3,0.6,0.3,1c0,0.2-0.2,0.5-0.4,0.7c-0.4,0.4-0.5,1.2,0,1.5
			c0.1,0.1,0.2,0.2,0.3,0.5c0.3-0.5,0.6-0.9,0.7-1.4c0.2-0.6,0.6-0.6,1-0.6s0.8,0.2,0.8,0.7s0,1-0.1,1.5c0,0.2-0.1,0.4-0.1,0.5
			c-0.2,0.4-0.1,0.7,0.4,0.7c0.4,0.1,0.6,0.3,0.7,0.7c0.2,0.6,0.5,1.2,0.7,1.8c0.1,0.4,0.1,0.9,0.1,1.3s-0.2,0.4-0.5,0.4
			c-0.4-0.1-0.8-0.1-1.3-0.2c0.3,1.1-0.2,2.2,0.7,3.1c0.4,0.4,0.2,1.2-0.2,1.5c-0.7,0.6-1.4,1.2-2.2,1.9c0.6,0.7,0.8,1.7,2,2
			c0.5,0.1,0.4,0.8,0.4,1.3c0,0.7-0.4,0.9-1,1c-0.1,0-0.3,0-0.3,0c-0.1,1-0.2,1.9-0.2,2.9c0,0.5,0.1,1.1,0.1,1.6
			c0.1,0.5,0.1,0.9-0.3,1.3c-0.6,0.5-0.7,1.8-0.3,2.4c0.2,0.2,0.5,0.4,0.8,0.5c0.4,0.1,0.5,0.3,0.5,0.7c0,0.5,0.1,1,0.1,1.5
			c0.1,0.8-0.4,1.5-1.2,1.6c-0.4,0-0.7-0.2-1.1-0.3c-0.2,0-0.4-0.2-0.5-0.1c-0.2,0.2-0.4,0.4-0.4,0.7c0,0.7,0,1.4,0.8,1.9
			c0.2,0.1,0.2,0.6,0.2,0.8c-0.2,0.8-0.4,1.5-0.7,2.3c-0.1,0.2-0.4,0.5-0.6,0.6c-0.4,0.2-0.7,0.4-0.7,0.9s-0.3,0.6-0.8,0.6
			c-0.1,0-0.2,0-0.3,0c-0.8-0.1-1.3,0.3-1.5,1.1c0.2,0.1,0.4,0.2,0.7,0.3c1,0.4,1,1.3,0.7,2c-0.1,0.2-0.4,0.3-0.7,0.3
			c-0.4,0.1-0.7,0.1-1.1,0.1s-0.8,0.2-1,0.6c-0.1,0.2-0.4,0.3-0.6,0.5c-0.3,0.2-0.7,0.4-1.1,0.6c-0.7,0.4-0.8,1-0.8,1.8
			c0.4,0,0.7-0.1,0.9-0.6c0.1-0.3,0.4-0.6,0.7-0.9c0.3,0.2,0.6,0.3,0.9,0.5c0.8,0.5,1,1.4,0.5,2.2c-0.3,0.5-0.5,1.1-0.4,1.7
			c0.1,0.8-0.2,1.2-0.9,1.5c-0.8,0.3-1.3,0.8-1.6,1.6c-0.1,0.3-0.5,0.6-0.8,0.8c-0.5,0.3-0.8,0.7-0.6,1.4c0.2,0.8-0.3,1.3-1,1.2
			c-0.1,0-0.3,0-0.4,0c-0.9-0.1-1.6,0-2,1c-0.1,0.2-0.5,0.4-0.7,0.3c-1.1-0.1-1.7,0.3-2,1.4c-0.2,0.9-0.6,1.1-1.3,1
			c-0.5-0.1-0.9-0.5-0.9-1c0-0.3,0-0.6-0.4-0.8c-0.4-0.1-0.7-0.1-0.9,0.2c-0.4,0.5-0.8,1-1.2,1.6c0,0-0.1,0-0.2,0
			c-1.3-0.2-1.3-0.2-1.6-1.5c0-0.2-0.2-0.4-0.4-0.5c-0.1,0-0.3,0.1-0.5,0.2c-0.4,0.2-0.7,0.4-1.1,0.6c-0.7,0.3-1.2,0.8-1.3,1.6
			c0,0.2-0.1,0.4-0.2,0.6c-0.2,0.5-0.5,0.8-1,0.7c-0.8-0.1-1.5,0-2.3,0.4c-0.6,0.3-1.1,0.3-1.7-0.2c-0.4-0.3-1.1-0.3-1.7-0.3
			c-1.1,0-2,0.7-2.9,1.2c-0.3,0.2-0.2,0.5,0.1,0.7c0.8,0.5,0.8,0.5,0.6,1.4c-0.2,0.7-0.9,1.1-1.7,0.9c-0.3-0.1-0.5-0.2-0.8-0.3
			c-0.4-0.1-0.8-0.1-1.2,0.2c-0.2,0.2-0.7,0.2-1,0.3c-0.1,0-0.2,0-0.3,0c-0.9-0.2-1.6-0.1-2.1,0.7c-0.3,0.5-0.8,0.6-1.3,0.4
			c-0.9-0.3-1.9-0.5-2.9-0.4c-0.4,0.1-0.7-0.2-0.8-0.6C65.1,151.1,65,150.5,64.8,149.9z"/>
		<path fill="#FF671B" d="M173,175.5c0,0.7-0.5,1.2-1.2,1.3c-0.6,0-1.2-0.7-1.2-1.4c0-0.4,0.9-1.2,1.4-1.2
			C172.4,174.2,173,174.9,173,175.5z"/>
		<path fill="#FF671B" d="M176.6,192c0.5,0,0.8,0.5,0.8,1.4c0,0.6-0.2,0.8-0.8,0.8c-0.7,0-1.4-0.5-1.4-1
			C175.3,192.8,176.1,192,176.6,192z"/>
		<path fill="#FF671B" d="M174.6,211.4c-0.5-0.1-0.8-0.3-1.2-0.4c-0.1,0-0.2-0.1-0.2-0.1c0-0.4,0-0.9,0.1-1.3c0.2-0.3,0.9-0.3,1.2,0
			c0.3,0.2,0.4,0.4,0.3,0.8C174.7,210.7,174.7,211.1,174.6,211.4z"/>
		<path fill="#FF671B" d="M64.7,217.4c0.5,0.2,0.8,0.3,0.5,0.9c-0.1,0.2,0.1,0.7,0.2,1.1c-0.5,0.2-0.7-0.1-0.9-0.5
			C64,218.3,64.5,217.9,64.7,217.4z"/>
		<path fill="#FF671B" d="M62.4,217.2c0.3,0.2,0.4,0.2,0.5,0.4c0.1,0.1,0.2,0.3,0.2,0.5c0,0-0.1,0.1-0.2,0.1
			c-0.2-0.1-0.4-0.2-0.5-0.3C62.4,217.7,62.5,217.5,62.4,217.2z"/>
	</g>
	<g>
		<path fill="#FF671B" d="M202.3,243.9c0,2.9-2.3,5.2-5.3,5.2c-2.9,0-5.3-2.3-5.3-5.2c0-2.8,2.3-5.1,5.3-5.1
			C200.1,238.8,202.3,241.1,202.3,243.9z M193.1,243.9c0,2.3,1.7,4.1,4,4.1s3.9-1.8,3.9-4.1s-1.7-4.1-3.9-4.1
			S193.1,241.7,193.1,243.9z M196.3,246.6h-1.2v-5.1c0.5-0.1,1.1-0.2,2-0.2c1,0,1.4,0.2,1.8,0.4c0.3,0.2,0.5,0.6,0.5,1.1
			c0,0.6-0.4,1-1.1,1.2v0.1c0.5,0.2,0.8,0.6,0.9,1.3c0.2,0.8,0.3,1.1,0.4,1.3h-1.3c-0.2-0.2-0.3-0.7-0.4-1.3
			c-0.1-0.6-0.4-0.8-1.1-0.8h-0.6v2H196.3z M196.3,243.7h0.6c0.7,0,1.2-0.2,1.2-0.8c0-0.5-0.3-0.8-1.1-0.8c-0.3,0-0.5,0-0.7,0.1
			V243.7z"/>
	</g>
</g>
</svg>
